<?xml version="1.0"?>
<svg xmlns="http://www.w3.org/2000/svg" xmlns:xlink="http://www.w3.org/1999/xlink" width="337.393219" height="145.611481">
	<defs />
	<path d="M 0 0 L 63.767 -74.9329" fill="none" stroke="#000000" stroke-width="1.60000002" stroke-linecap="round" stroke-linejoin="round" transform="matrix(0.625 0 0 0.625 19.6395 76.0715)" />
	<path d="M 0 0 L 48.8336 63.1999" fill="none" stroke="#000000" stroke-width="1.60000002" stroke-linecap="round" stroke-linejoin="round" transform="matrix(0.625 0 0 0.625 19.6395 76.0715)" />
	<path d="M 0 0 L 117.867 52.7993" fill="none" stroke="#000000" stroke-width="1.60000002" stroke-linecap="round" stroke-linejoin="round" transform="matrix(0.625 0 0 0.625 59.4939 29.2384)" />
	<path d="M 0 0 L 121.533 0" fill="none" stroke="#000000" stroke-width="1.60000002" stroke-linecap="round" stroke-linejoin="round" transform="matrix(0.625 0 0 0.625 50.1605 115.571)" />
	<path d="M 0 0 L -11.2668 85.3335" fill="none" stroke="#000000" stroke-width="1.60000002" stroke-linecap="round" stroke-linejoin="round" transform="matrix(0.625 0 0 0.625 133.16 62.238)" />
	<path d="M 0 0 L -14.9334 138.133" fill="none" stroke="#000000" stroke-width="1.60000002" stroke-linecap="round" stroke-linejoin="round" transform="matrix(0.625 0 0 0.625 59.4939 29.2384)" />
	<path d="M 0 0 L 106.6 137.961" fill="none" stroke="#000000" stroke-width="1.60000002" stroke-linecap="round" stroke-linejoin="round" transform="matrix(0.625 0 0 0.625 59.4939 29.2384)" />
	<g transform="matrix(1 0 -0 1 137.529 55.3032)">
		<svg width="30.0139503" height="30.0139503">
			<defs />
			<path d="M 7.97032 10.6507 C 7.92616 10.7685, 7.84924 10.8274, 7.73993 10.8274, 7.33582 10.8038, 6.93318 10.7921, 6.53275 10.7921 L 6.33253 10.7921 C 5.8596 10.8001, 5.38446 10.8119, 4.90748 10.8274, 4.79854 10.8274, 4.73965 10.7766, 4.73155 10.6743 L 4.73155 10.6272, 4.75584 10.5271 C 4.78823 10.3979, 4.86699 10.3349, 4.99213 10.3386, 5.14192 10.339, 5.27552 10.3342, 5.39256 10.3243, 5.50996 10.3147, 5.62332 10.2801, 5.73226 10.2208, 5.77274 10.2017, 5.80734 10.1741, 5.83531 10.1384, 5.8515 10.1075, 5.86181 10.0758, 5.86549 10.0442 L 5.86549 10.0089, 5.72011 8.05382, 2.97857 8.05382, 2.0143 9.70265 C 1.96167 9.79723, 1.93517 9.88372, 1.93517 9.96175, 1.93517 10.0287, 1.95541 10.0898, 1.9959 10.1443, 2.08496 10.2742, 2.25095 10.339, 2.49312 10.3386, 2.60243 10.339, 2.66095 10.3861, 2.66904 10.48, 2.66904 10.5039, 2.665 10.5293, 2.6569 10.5565 L 2.63298 10.6507 C 2.58844 10.7685, 2.50968 10.8274, 2.39633 10.8274, 2.0246 10.8119, 1.65656 10.8001, 1.2922 10.7921 L 1.12879 10.7921 C 0.813377 10.7921, 0.493917 10.8038, 0.170408 10.8274, 0.109681 10.8274, 0.0651477 10.8079, 0.0368085 10.7685, 0.0125177 10.7453, 0.000372291 10.7177, 0.000372291 10.6861, 0.000372291 10.6629, 0.00442076 10.6393, 0.0125177 10.6154 L 0.0368085 10.5271 C 0.0691962 10.3979, 0.148325 10.3349, 0.273459 10.3386, 0.40301 10.339, 0.530353 10.3254, 0.655487 10.2978, 0.780989 10.2705, 0.898395 10.2212, 1.00734 10.1506, 1.11664 10.0799, 1.21786 9.9945, 1.3106 9.8944, 1.40372 9.79429, 1.48653 9.6813, 1.5594 9.55543 L 5.8412 2.22403 C 5.91407 2.11436, 6.00719 2.06136, 6.12054 2.06504 L 6.23574 2.06504 C 6.36529 2.06541, 6.43779 2.12613, 6.45399 2.24759 L 6.98765 9.92053 C 6.99575 10.0228, 7.00789 10.1005, 7.02409 10.1535, 7.04028 10.2065, 7.06862 10.2448, 7.1091 10.268, 7.16578 10.3037, 7.25963 10.3243, 7.39102 10.3302, 7.52278 10.336, 7.6711 10.339, 7.83672 10.3386, 7.95008 10.339, 8.00676 10.3861, 8.00676 10.48, 8.00676 10.5039, 8.00271 10.5293, 7.99461 10.5565 Z M 5.42899 3.87875 L 3.26969 7.57684, 5.68368 7.57684 Z" stroke="none" fill="#000000" />
			<rect />
		</svg>
	</g>
	<g transform="matrix(1 0 -0 1 55.2724 15.024)">
		<svg width="30.0139503" height="30.0139503">
			<defs />
			<path d="M 8.37848 4.5795 C 8.31002 4.86253, 8.17348 5.12752, 7.96922 5.37484, 7.76495 5.62216, 7.52941 5.83232, 7.26258 6.00456, 7.05242 6.14626, 6.83712 6.25814, 6.61666 6.34058, 6.39621 6.42302, 6.31818 6.45836, 6.38296 6.44621, 6.37118 6.44253, 6.47718 6.49295, 6.70168 6.59674, 6.92619 6.7009, 7.12309 6.84296, 7.29276 7.0233, 7.48303 7.21616, 7.61258 7.44765, 7.68104 7.71816, 7.71343 7.85213, 7.73183 7.98352, 7.73551 8.11271, 7.73551 8.26213, 7.71343 8.41744, 7.6689 8.57791, 7.59234 8.88044, 7.45065 9.16935, 7.24454 9.44391, 7.03844 9.71884, 6.79148 9.95807, 6.50441 10.162, 6.20114 10.3821, 5.87874 10.548, 5.5372 10.6599, 5.19565 10.7718, 4.85485 10.8274, 4.51478 10.8274 L 0.172248 10.8274 C 0.111521 10.8274, 0.0669878 10.8097, 0.0386485 10.7744, 0.0106774 10.7471, -0.00367628 10.7177, -0.00367628 10.6861, -0.00367628 10.6629, 0.00037218 10.6393, 0.0084691 10.6154 L 0.0327599 10.5271 C 0.0570506 10.3979, 0.135812 10.3349, 0.269043 10.3386, 0.459321 10.339, 0.637453 10.336, 0.803072 10.3302, 0.968691 10.3243, 1.09419 10.3037, 1.17884 10.268, 1.25171 10.2289, 1.30839 10.123, 1.34888 9.94997 L 3.05328 3.31344 C 3.07757 3.22732, 3.08935 3.1607, 3.08935 3.11322, 3.08935 3.06648, 3.07941 3.03888, 3.05917 3.03078, 3.00249 2.99582, 2.89245 2.97447, 2.72867 2.96637, 2.56489 2.95864, 2.38602 2.9546, 2.19169 2.95423, 2.13134 2.9546, 2.0868 2.93509, 2.05846 2.89534, 2.03417 2.87216, 2.02203 2.84271, 2.02203 2.80701, 2.02203 2.78382, 2.02828 2.76211, 2.04006 2.74224 L 2.05846 2.65391 C 2.07061 2.59944, 2.10005 2.55527, 2.14642 2.52178, 2.1928 2.48866, 2.24248 2.47173, 2.29511 2.47136 L 6.31634 2.47136 C 6.64795 2.47173, 6.96115 2.52104, 7.25632 2.61894, 7.55149 2.71721, 7.79624 2.87216, 7.9902 3.08378, 8.18047 3.27663, 8.31407 3.5004, 8.39063 3.75509, 8.42301 3.88501, 8.43921 4.0164, 8.43921 4.14963, 8.43921 4.29133, 8.41896 4.43449, 8.37848 4.5795 Z M 7.15327 4.55595 C 7.19375 4.39916, 7.21399 4.24238, 7.21399 4.08485 L 7.21399 3.94353 C 7.1978 3.75546, 7.14112 3.58064, 7.04396 3.41943, 6.95931 3.27443, 6.84706 3.1607, 6.70757 3.07826, 6.56808 2.99582, 6.40541 2.9546, 6.21918 2.95423 L 4.61783 2.95423 C 4.40363 2.9546, 4.28033 2.96821, 4.24794 2.99545, 4.19936 3.0352, 4.15299 3.14892, 4.10846 3.33699 L 3.35655 6.29311, 5.01237 6.29311 C 5.24276 6.29347, 5.47132 6.24857, 5.69766 6.15803, 5.92438 6.06786, 6.14042 5.94015, 6.34652 5.7749, 6.77529 5.42968, 7.04433 5.02336, 7.15327 4.55595 Z M 6.40725 8.54258 C 6.46393 8.34273, 6.49226 8.14436, 6.49226 7.94782 L 6.49226 7.82416 C 6.47607 7.60481, 6.41755 7.40238, 6.31634 7.21763, 6.22727 7.05716, 6.10692 6.92651, 5.95529 6.8264, 5.80366 6.72629, 5.627 6.67624, 5.42457 6.67587 L 3.24724 6.67587, 2.40405 9.97353 C 2.37167 10.1075, 2.35547 10.2036, 2.35547 10.2621, 2.35547 10.2937, 2.35768 10.3114, 2.36173 10.3151, 2.36983 10.3272, 2.47509 10.3349, 2.67714 10.3386 L 4.29653 10.3386 C 4.51882 10.339, 4.74333 10.2911, 4.96968 10.1947, 5.19639 10.0987, 5.4047 9.97205, 5.59461 9.81453, 5.80513 9.63824, 5.97774 9.44023, 6.11318 9.22014, 6.24862 9.00042, 6.34689 8.77444, 6.40725 8.54258 Z" stroke="none" fill="#000000" />
			<rect />
		</svg>
	</g>
	<g transform="matrix(1 0 -0 1 7.75 68.8667)">
		<svg width="30.0139503" height="32.916275">
			<defs />
			<path d="M 7.50364 5.60413 C 7.47935 5.71454, 7.40869 5.77122, 7.29128 5.7749 L 7.15805 5.7749 C 7.0653 5.77527, 7.01451 5.72816, 7.00642 5.63357 L 7.00642 5.58646 C 7.0469 5.33951, 7.06935 5.10212, 7.07303 4.87394, 7.07303 4.74475, 7.06898 4.61336, 7.06089 4.47939, 7.0204 4.13417, 6.9295 3.82906, 6.78817 3.56407, 6.64684 3.29908, 6.45656 3.08709, 6.21807 2.9281, 5.97958 2.7691, 5.68809 2.68961, 5.34434 2.68924, 4.92404 2.68961, 4.50152 2.79192, 4.0768 2.99582, 3.65245 3.20008, 3.26821 3.4728, 2.92446 3.81397, 2.52403 4.21882, 2.21083 4.66636, 1.98448 5.15696, 1.75814 5.64793, 1.58001 6.1481, 1.45046 6.6582, 1.30913 7.17677, 1.22816 7.67915, 1.20792 8.1657 L 1.20792 8.33059 C 1.20792 8.75899, 1.29293 9.14948, 1.4626 9.50243, 1.62454 9.83661, 1.86082 10.1057, 2.17219 10.3095, 2.48355 10.5138, 2.8538 10.6158, 3.2822 10.6154, 3.63 10.6158, 3.97154 10.5414, 4.3072 10.392, 4.64285 10.2429, 4.95127 10.0416, 5.23245 9.7884, 5.51364 9.53519, 5.75912 9.24186, 5.96927 8.90804, 6.17979 8.5746, 6.33143 8.22091, 6.42417 7.84771, 6.44847 7.73804, 6.5195 7.6832, 6.63654 7.68283 L 6.76977 7.68283 C 6.87098 7.6832, 6.92545 7.72626, 6.93355 7.81238, 6.93355 7.83631, 6.92766 7.85802, 6.91551 7.87716, 6.80657 8.30924, 6.6266 8.71961, 6.37559 9.10826, 6.12496 9.49691, 5.82684 9.83772, 5.48088 10.1299, 5.13529 10.4225, 4.75621 10.6559, 4.34363 10.8303, 3.93143 11.0051, 3.50671 11.0924, 3.06984 11.0924, 2.51189 11.0924, 2.01577 10.9757, 1.58111 10.7424, 1.14645 10.509, 0.7935 10.1859, 0.522622 9.77331, 0.239597 9.33019, 0.0736103 8.83922, 0.0250288 8.30114, 0.0088349 8.15613, 0.000737965 8.00524, 0.000737965 7.84771, 0.000737965 7.4517, 0.0515278 7.04722, 0.152371 6.63465, 0.306213 6.05793, 0.550225 5.50145, 0.883671 4.96558, 1.21712 4.42971, 1.63448 3.94205, 2.13575 3.50187, 2.60905 3.10181, 3.12173 2.78382, 3.6738 2.54828, 4.22586 2.31273, 4.77866 2.19496, 5.33219 2.19459, 5.77311 2.19496, 6.15035 2.29212, 6.46356 2.48645, 6.77713 2.68077, 7.00863 2.91522, 7.15805 3.18978 L 7.97694 2.27703 C 8.00933 2.22256, 8.0638 2.19496, 8.14072 2.19459 L 8.18894 2.19459 C 8.2861 2.19496, 8.33468 2.24207, 8.33468 2.33592 L 8.33468 2.38303 Z" stroke="none" fill="#000000" />
			<rect />
		</svg>
	</g>
	<g transform="matrix(1 0 -0 1 45.6783 114.639)">
		<svg width="30.0139503" height="30.0139503">
			<defs />
			<path d="M 8.79197 6.74064 C 8.65433 7.27099, 8.43718 7.78331, 8.1398 8.27796, 7.84279 8.7726, 7.46997 9.22198, 7.02096 9.62609, 6.61243 9.99156, 6.16379 10.283, 5.67429 10.5009, 5.18516 10.7188, 4.69603 10.8274, 4.20654 10.8274 L 0.173167 10.8274 C 0.0642262 10.8274, 0.00570749 10.7766, -0.00275747 10.6743 L -0.00275747 10.6272, 0.0215333 10.5271 C 0.053921 10.3979, 0.132682 10.3349, 0.257816 10.3386, 0.448094 10.339, 0.628066 10.336, 0.797734 10.3302, 0.967769 10.3243, 1.0929 10.3037, 1.17387 10.268, 1.25079 10.2253, 1.30931 10.1193, 1.3498 9.94997 L 3.0542 3.31344 C 3.07849 3.22732, 3.09027 3.1607, 3.09027 3.11322, 3.09027 3.06648, 3.08033 3.03888, 3.06009 3.03078, 3.00341 2.99582, 2.89336 2.97447, 2.72959 2.96637, 2.56581 2.95864, 2.38694 2.9546, 2.19261 2.95423, 2.07962 2.9546, 2.02295 2.9016, 2.02295 2.79523 L 2.02295 2.74813, 2.05938 2.64802 C 2.08367 2.53061, 2.15875 2.47173, 2.28389 2.47136 L 6.3294 2.47136 C 6.83068 2.47173, 7.26754 2.58766, 7.63963 2.81916, 8.01172 3.05102, 8.31094 3.35503, 8.53729 3.73153, 8.77983 4.15589, 8.91711 4.62698, 8.9495 5.14481, 8.95759 5.25523, 8.96164 5.35717, 8.96164 5.45103, 8.96164 5.87133, 8.90533 6.3012, 8.79197 6.74064 Z M 7.62123 4.00241 C 7.48395 3.67706, 7.26865 3.42091, 6.97532 3.23431, 6.68236 3.04808, 6.33971 2.9546, 5.94738 2.95423 L 4.64304 2.95423 C 4.43693 2.9546, 4.31364 2.97042, 4.27315 3.00171, 4.23267 3.03336, 4.19034 3.14487, 4.14581 3.33699 L 2.42926 9.97353 C 2.39688 10.1075, 2.38068 10.2036, 2.38068 10.2621 L 2.38068 10.3092 C 2.39688 10.3254, 2.50434 10.3349, 2.70235 10.3386 L 4.00632 10.3386 C 4.4027 10.339, 4.79798 10.2499, 5.19215 10.0711, 5.5867 9.89256, 5.93928 9.64413, 6.25064 9.32577, 6.60654 8.95699, 6.87963 8.54589, 7.06954 8.09246, 7.25945 7.63904, 7.41108 7.18082, 7.52407 6.71709, 7.64957 6.23459, 7.73643 5.7576, 7.78501 5.28614, 7.79311 5.17647, 7.79716 5.07047, 7.79716 4.96815, 7.79716 4.62293, 7.73864 4.30126, 7.62123 4.00241 Z" stroke="none" fill="#000000" />
			<rect />
		</svg>
	</g>
	<g transform="matrix(1 0 -0 1 125.342 114.639)">
		<svg width="30.0139503" height="30.0139503">
			<defs />
			<path d="M 8.28352 5.13893 C 8.27175 5.19045, 8.24525 5.23462, 8.20476 5.27179, 8.16428 5.30933, 8.12011 5.32773, 8.07153 5.32736, 8.05534 5.33546, 8.0351 5.33951, 8.01081 5.33914, 7.96222 5.33951, 7.93793 5.33546, 7.93793 5.32736, 7.83709 5.32773, 7.78225 5.28467, 7.77416 5.19781 L 7.77416 5.15659 C 7.79845 4.97257, 7.81869 4.78597, 7.83488 4.59717, 7.85108 4.45216, 7.85917 4.31893, 7.85917 4.19674 L 7.85917 4.09663 C 7.85108 3.93985, 7.83194 3.79962, 7.80176 3.67596, 7.77158 3.5523, 7.71784 3.4474, 7.64092 3.36055, 7.48708 3.18021, 7.25853 3.07347, 6.95526 3.03998, 6.65199 3.00686, 6.32849 2.98993, 5.98473 2.98956 L 4.68076 2.98956 C 4.46656 2.98993, 4.34143 3.00575, 4.30499 3.03667, 4.28475 3.05286, 4.24426 3.16843, 4.18354 3.3841 L 3.43126 6.25777, 4.26855 6.25777 C 4.49527 6.25814, 4.70137 6.24857, 4.88723 6.2287, 5.07346 6.20919, 5.23319 6.15031, 5.36642 6.05167, 5.48788 5.95377, 5.57989 5.81649, 5.64246 5.63983, 5.70502 5.46317, 5.76685 5.26112, 5.82721 5.03293, 5.87175 4.91552, 5.94867 4.85848, 6.05761 4.86216 L 6.16066 4.86216 C 6.27402 4.86253, 6.33069 4.91368, 6.33069 5.01526 L 6.33069 5.05648, 5.57253 7.97138 C 5.54824 8.09357, 5.46948 8.15245, 5.33588 8.14804 L 5.23871 8.14804 C 5.12572 8.14841, 5.06905 8.1013, 5.06905 8.00671, 5.06905 7.98352, 5.0753 7.96181, 5.08708 7.94193, 5.14008 7.72258, 5.17835 7.52016, 5.20265 7.3354, 5.21074 7.28866, 5.21479 7.24744, 5.21479 7.21174, 5.21479 7.10206, 5.1905 7.01373, 5.14192 6.94675, 5.07346 6.8529, 4.9509 6.79696, 4.77498 6.77929, 4.59906 6.76162, 4.40215 6.75279, 4.18354 6.75242 L 3.31017 6.75242, 2.47913 9.97941 C 2.43865 10.1171, 2.41841 10.2194, 2.41841 10.2856 L 2.41841 10.3092 C 2.4346 10.3254, 2.54796 10.3349, 2.75811 10.3386 L 4.1471 10.3386 C 4.50705 10.339, 4.85595 10.3147, 5.19344 10.2654, 5.53131 10.2164, 5.84561 10.0917, 6.13637 9.89108, 6.26592 9.79723, 6.38958 9.67173, 6.50662 9.51458, 6.62402 9.35779, 6.73517 9.18408, 6.84043 8.99343, 6.94569 8.80315, 7.04543 8.6011, 7.14039 8.3869, 7.23534 8.17306, 7.32956 7.96181, 7.42231 7.7535, 7.45469 7.65965, 7.52573 7.61254, 7.63467 7.61217 L 7.73772 7.61217 C 7.85108 7.61254, 7.90775 7.66369, 7.90775 7.76527 L 7.90775 7.81238, 6.70058 10.6861 C 6.65641 10.7803, 6.58354 10.8274, 6.48233 10.8274 L 0.174456 10.8274 C 0.113729 10.8274, 0.069196 10.8097, 0.0408567 10.7744, 0.0128856 10.7471, -0.00110004 10.7177, -0.00146808 10.6861, -0.00110004 10.6629, 0.00294842 10.6393, 0.0106773 10.6154 L 0.0349681 10.5271 C 0.0471135 10.4763, 0.0754527 10.4325, 0.119986 10.3949, 0.164519 10.3578, 0.214941 10.339, 0.271251 10.3386, 0.461529 10.339, 0.639661 10.336, 0.80528 10.3302, 0.970899 10.3243, 1.0964 10.3037, 1.18105 10.268, 1.25392 10.2289, 1.3106 10.123, 1.35109 9.94997 L 3.05549 3.35466 C 3.07978 3.26854, 3.09192 3.20008, 3.09192 3.14855, 3.09192 3.10181, 3.08199 3.07421, 3.06138 3.06611, 3.0047 3.03115, 2.89355 3.0098, 2.72793 3.00171, 2.56231 2.99398, 2.38418 2.98993, 2.1939 2.98956, 2.08091 2.98993, 2.02424 2.93693, 2.02424 2.83057 L 2.02424 2.78935, 2.04853 2.68924 C 2.08091 2.56005, 2.16004 2.49528, 2.28518 2.49491 L 8.42927 2.49491 C 8.53048 2.49528, 8.58495 2.54423, 8.59305 2.64213 L 8.59305 2.68335 Z" stroke="none" fill="#000000" />
			<rect />
		</svg>
	</g>
	<g transform="matrix(1 0 -0 1 33.1218 68.8295)">
		<svg width="44.9720879" height="36.0418549">
			<defs />
			<path d="M 9.72073 2.77757 C 9.6762 2.89571, 9.59743 2.9546, 9.48408 2.95423, 9.16057 2.9546, 8.85325 3.02526, 8.56213 3.16622, 8.27101 3.30019, 8.00602 3.50408, 7.76753 3.77864 L 5.61448 6.16355, 7.01562 9.86753 C 7.0561 9.96984, 7.09549 10.0545, 7.13376 10.1211, 7.17204 10.1881, 7.22356 10.237, 7.28834 10.268, 7.36121 10.3037, 7.46353 10.3243, 7.59492 10.3302, 7.72631 10.336, 7.87095 10.339, 8.02847 10.3386, 8.13778 10.339, 8.1963 10.3861, 8.2044 10.48, 8.2044 10.5039, 8.20035 10.5293, 8.19225 10.5565 L 8.16796 10.6507 C 8.12343 10.7685, 8.04467 10.8274, 7.93131 10.8274, 7.5272 10.8038, 7.12456 10.7921, 6.72413 10.7921 L 6.53017 10.7921 C 6.05724 10.8001, 5.5843 10.8119, 5.111 10.8274, 4.99765 10.8274, 4.94097 10.7766, 4.94097 10.6743 L 4.94097 10.6213, 4.9774 10.5212 C 5.00169 10.396, 5.07457 10.3349, 5.19602 10.3386, 5.29318 10.339, 5.38814 10.3272, 5.48089 10.3037, 5.574 10.2801, 5.66307 10.2429, 5.74772 10.1914, 5.83273 10.1329, 5.87322 10.0876, 5.86917 10.056 L 5.86917 10.0442, 4.7529 7.11752, 2.39964 9.73798 C 2.31499 9.83257, 2.2745 9.92274, 2.27855 10.0089, 2.27855 10.0486, 2.28886 10.0898, 2.30873 10.1325, 2.37351 10.2702, 2.50895 10.339, 2.71505 10.3386, 2.82841 10.339, 2.88509 10.3938, 2.88509 10.5035 L 2.88509 10.5447, 2.86079 10.6507 C 2.81626 10.7685, 2.73934 10.8274, 2.63003 10.8274, 2.22592 10.8119, 1.8196 10.8001, 1.41108 10.7921 L 1.23515 10.7921 C 0.887721 10.7921, 0.531825 10.8038, 0.167831 10.8274, 0.107472 10.8274, 0.0629392 10.8079, 0.034232 10.7685, 0.0103092 10.7453, -0.00183617 10.7177, -0.00220419 10.6861, -0.00183617 10.6629, 0.0022123 10.6393, 0.00994119 10.6154 L 0.034232 10.5271 C 0.0669877 10.3979, 0.143908 10.3349, 0.264626 10.3386, 0.418468 10.339, 0.572309 10.3224, 0.725783 10.2889, 0.879624 10.2558, 1.0331 10.2036, 1.18694 10.1329, 1.34078 10.0622, 1.48432 9.975, 1.61755 9.87084, 1.75078 9.76705, 1.87223 9.65002, 1.98117 9.5201 L 4.58323 6.64643, 3.35802 3.42532 C 3.31753 3.32742, 3.28036 3.24535, 3.24577 3.17837, 3.21154 3.11175, 3.16001 3.06243, 3.09119 3.03078, 3.01832 2.99582, 2.91637 2.97447, 2.78498 2.96637, 2.65359 2.95864, 2.50895 2.9546, 2.35106 2.95423, 2.2907 2.9546, 2.24616 2.93509, 2.21782 2.89534, 2.19353 2.87216, 2.18139 2.84271, 2.18139 2.80701, 2.18139 2.78382, 2.18765 2.76211, 2.19942 2.74224 L 2.21782 2.64802 C 2.26236 2.53061, 2.34112 2.47173, 2.45448 2.47136, 2.85895 2.49528, 3.25938 2.50706, 3.6554 2.50669, 3.71612 2.50706, 3.78495 2.50301, 3.8615 2.49491, 4.33075 2.49528, 4.80185 2.48755, 5.27478 2.47136, 5.38814 2.47173, 5.44445 2.52472, 5.44445 2.63035 L 5.44445 2.67746, 5.40801 2.77757 C 5.38372 2.89571, 5.30901 2.9546, 5.18388 2.95423, 4.97372 2.9546, 4.79154 3.00575, 4.6377 3.10733, 4.55305 3.15886, 4.51257 3.20008, 4.51661 3.231 L 4.51661 3.24277, 5.44445 5.68657, 7.35496 3.54898 C 7.41163 3.49451, 7.44623 3.42974, 7.45837 3.35466, 7.46647 3.33147, 7.47052 3.30976, 7.47052 3.28988, 7.47052 3.24719, 7.46058 3.20965, 7.43997 3.178, 7.37152 3.02931, 7.23203 2.9546, 7.02151 2.95423, 6.91662 2.9546, 6.86399 2.9016, 6.86399 2.79523 L 6.86399 2.75401, 6.88791 2.64802 C 6.93281 2.53061, 7.01157 2.47173, 7.12456 2.47136, 7.52904 2.48755, 7.93757 2.49528, 8.34977 2.49491, 8.40645 2.50301, 8.46129 2.50706, 8.51355 2.50669, 8.86135 2.50706, 9.2132 2.49528, 9.56909 2.47136, 9.6784 2.47173, 9.73692 2.52472, 9.74502 2.63035 L 9.74502 2.67157 Z" stroke="none" fill="#000000" />
			<path d="M 1.52816 2.0553 C 1.11163 2.04211, 0.706223 2.03551, 0.312153 2.03551, -0.0817108 2.03551, -0.487116 2.04211, -0.903858 2.0553 L -0.903858 1.7717, -0.669312 1.7717 C -0.594702 1.77191, -0.524421 1.77088, -0.45888 1.76861, -0.393133 1.76655, -0.33089 1.76098, -0.271944 1.75212, -0.212999 1.74346, -0.162091 1.7346, -0.119222 1.72553, -0.0829474 1.71914, -0.0528563 1.69894, -0.0291544 1.66473, -0.0052464 1.63072, 0.00650156 1.5928, 0.00650156 1.55076 L 0.00650156 -2.1657 C -0.106649 -2.11047, -0.245975 -2.06863, -0.41127 -2.04019, -0.576565 -2.01154, -0.75773 -1.99732, -0.954765 -1.99752 L -0.954765 -2.27782 C -0.682915 -2.27762, -0.432087 -2.30997, -0.202281 -2.3749, 0.0275241 -2.43961, 0.226208 -2.56122, 0.39377 -2.73949 L 0.499089 -2.73949 C 0.573698 -2.73929, 0.611003 -2.70301, 0.611003 -2.63067 L 0.611003 1.55076 C 0.611003 1.59486, 0.622339 1.6334, 0.64501 1.66638, 0.667682 1.69936, 0.700658 1.71914, 0.743528 1.72553, 0.779802 1.7346, 0.826381 1.74346, 0.882854 1.75212, 0.939532 1.76098, 1.00342 1.76655, 1.07474 1.76861, 1.14605 1.77088, 1.21571 1.77191, 1.28352 1.7717 L 1.52816 1.7717, 1.52816 2.0553 Z" stroke="none" fill="#000000" transform="matrix(1.12 0 0 1 11.3306 10.4826)" />
			<rect />
		</svg>
	</g>
	<g transform="matrix(1 0 -0 1 66.3463 68.8295)">
		<svg width="44.9720879" height="36.0418549">
			<defs />
			<path d="M 9.72073 2.77757 C 9.6762 2.89571, 9.59743 2.9546, 9.48408 2.95423, 9.16057 2.9546, 8.85325 3.02526, 8.56213 3.16622, 8.27101 3.30019, 8.00602 3.50408, 7.76753 3.77864 L 5.61448 6.16355, 7.01562 9.86753 C 7.0561 9.96984, 7.09549 10.0545, 7.13376 10.1211, 7.17204 10.1881, 7.22356 10.237, 7.28834 10.268, 7.36121 10.3037, 7.46353 10.3243, 7.59492 10.3302, 7.72631 10.336, 7.87095 10.339, 8.02847 10.3386, 8.13778 10.339, 8.1963 10.3861, 8.2044 10.48, 8.2044 10.5039, 8.20035 10.5293, 8.19225 10.5565 L 8.16796 10.6507 C 8.12343 10.7685, 8.04467 10.8274, 7.93131 10.8274, 7.5272 10.8038, 7.12456 10.7921, 6.72413 10.7921 L 6.53017 10.7921 C 6.05724 10.8001, 5.5843 10.8119, 5.111 10.8274, 4.99765 10.8274, 4.94097 10.7766, 4.94097 10.6743 L 4.94097 10.6213, 4.9774 10.5212 C 5.00169 10.396, 5.07457 10.3349, 5.19602 10.3386, 5.29318 10.339, 5.38814 10.3272, 5.48089 10.3037, 5.574 10.2801, 5.66307 10.2429, 5.74772 10.1914, 5.83273 10.1329, 5.87322 10.0876, 5.86917 10.056 L 5.86917 10.0442, 4.7529 7.11752, 2.39964 9.73798 C 2.31499 9.83257, 2.2745 9.92274, 2.27855 10.0089, 2.27855 10.0486, 2.28886 10.0898, 2.30873 10.1325, 2.37351 10.2702, 2.50895 10.339, 2.71505 10.3386, 2.82841 10.339, 2.88509 10.3938, 2.88509 10.5035 L 2.88509 10.5447, 2.86079 10.6507 C 2.81626 10.7685, 2.73934 10.8274, 2.63003 10.8274, 2.22592 10.8119, 1.8196 10.8001, 1.41108 10.7921 L 1.23515 10.7921 C 0.887721 10.7921, 0.531825 10.8038, 0.167831 10.8274, 0.107472 10.8274, 0.0629392 10.8079, 0.034232 10.7685, 0.0103092 10.7453, -0.00183617 10.7177, -0.00220419 10.6861, -0.00183617 10.6629, 0.0022123 10.6393, 0.00994119 10.6154 L 0.034232 10.5271 C 0.0669877 10.3979, 0.143908 10.3349, 0.264626 10.3386, 0.418468 10.339, 0.572309 10.3224, 0.725783 10.2889, 0.879624 10.2558, 1.0331 10.2036, 1.18694 10.1329, 1.34078 10.0622, 1.48432 9.975, 1.61755 9.87084, 1.75078 9.76705, 1.87223 9.65002, 1.98117 9.5201 L 4.58323 6.64643, 3.35802 3.42532 C 3.31753 3.32742, 3.28036 3.24535, 3.24577 3.17837, 3.21154 3.11175, 3.16001 3.06243, 3.09119 3.03078, 3.01832 2.99582, 2.91637 2.97447, 2.78498 2.96637, 2.65359 2.95864, 2.50895 2.9546, 2.35106 2.95423, 2.2907 2.9546, 2.24616 2.93509, 2.21782 2.89534, 2.19353 2.87216, 2.18139 2.84271, 2.18139 2.80701, 2.18139 2.78382, 2.18765 2.76211, 2.19942 2.74224 L 2.21782 2.64802 C 2.26236 2.53061, 2.34112 2.47173, 2.45448 2.47136, 2.85895 2.49528, 3.25938 2.50706, 3.6554 2.50669, 3.71612 2.50706, 3.78495 2.50301, 3.8615 2.49491, 4.33075 2.49528, 4.80185 2.48755, 5.27478 2.47136, 5.38814 2.47173, 5.44445 2.52472, 5.44445 2.63035 L 5.44445 2.67746, 5.40801 2.77757 C 5.38372 2.89571, 5.30901 2.9546, 5.18388 2.95423, 4.97372 2.9546, 4.79154 3.00575, 4.6377 3.10733, 4.55305 3.15886, 4.51257 3.20008, 4.51661 3.231 L 4.51661 3.24277, 5.44445 5.68657, 7.35496 3.54898 C 7.41163 3.49451, 7.44623 3.42974, 7.45837 3.35466, 7.46647 3.33147, 7.47052 3.30976, 7.47052 3.28988, 7.47052 3.24719, 7.46058 3.20965, 7.43997 3.178, 7.37152 3.02931, 7.23203 2.9546, 7.02151 2.95423, 6.91662 2.9546, 6.86399 2.9016, 6.86399 2.79523 L 6.86399 2.75401, 6.88791 2.64802 C 6.93281 2.53061, 7.01157 2.47173, 7.12456 2.47136, 7.52904 2.48755, 7.93757 2.49528, 8.34977 2.49491, 8.40645 2.50301, 8.46129 2.50706, 8.51355 2.50669, 8.86135 2.50706, 9.2132 2.49528, 9.56909 2.47136, 9.6784 2.47173, 9.73692 2.52472, 9.74502 2.63035 L 9.74502 2.67157 Z" stroke="none" fill="#000000" />
			<path d="M 1.53724 2.0553 L -1.22743 2.0553, -1.22743 1.87393 C -1.22743 1.86094, -1.22063 1.84116, -1.20703 1.81457 L -0.0963354 0.607627 C 0.0349525 0.462736, 0.167889 0.314342, 0.302681 0.162649, 0.437473 0.010957, 0.558249 -0.144033, 0.664599 -0.30232, 0.770948 -0.460608, 0.855863 -0.623842, 0.919343 -0.792022, 0.982823 -0.960203, 1.01436 -1.13663, 1.01436 -1.3215, 1.01436 -1.47732, 0.993952 -1.62303, 0.953144 -1.75824, 0.912335 -1.89344, 0.853596 -2.01216, 0.776513 -2.11438, 0.699636 -2.21661, 0.603386 -2.29905, 0.487968 -2.36171, 0.37255 -2.42436, 0.238789 -2.45569, 0.0870967 -2.4559, -0.139205 -2.45569, -0.339125 -2.38809, -0.512458 -2.25288, -0.685585 -2.11768, -0.800591 -1.96867, -0.85727 -1.80626, -0.868399 -1.80172, -0.850262 -1.79946, -0.802858 -1.79966 L -0.745149 -1.79966 C -0.677135 -1.784, -0.618396 -1.7603, -0.568519 -1.72856, -0.518642 -1.69661, -0.476803 -1.65271, -0.442796 -1.59665, -0.408788 -1.54059, -0.391888 -1.47299, -0.391888 -1.39405, -0.391888 -1.26194, -0.434757 -1.16074, -0.520909 -1.09046, -0.60706 -1.01997, -0.70331 -0.984935, -0.80966 -0.985141, -0.911475 -0.984935, -1.00669 -1.01997, -1.09491 -1.09046, -1.18312 -1.16074, -1.22743 -1.26194, -1.22743 -1.39405, -1.22743 -1.57851, -1.19116 -1.75329, -1.11861 -1.91817, -1.04606 -2.08305, -0.947749 -2.22588, -0.823263 -2.34687, -0.698776 -2.46764, -0.551618 -2.56328, -0.381789 -2.63376, -0.211959 -2.70404, -0.0318251 -2.73929, 0.158409 -2.73949, 0.393985 -2.73929, 0.609775 -2.70466, 0.805574 -2.63541, 1.00137 -2.56616, 1.16832 -2.46661, 1.3064 -2.33697, 1.44449 -2.20713, 1.5527 -2.05709, 1.63081 -1.88684, 1.70893 -1.7164, 1.74788 -1.52802, 1.74788 -1.3215, 1.74788 -1.09273, 1.69594 -0.882089, 1.59165 -0.689795, 1.48757 -0.497294, 1.35855 -0.32087, 1.20459 -0.160521, 1.05063 3.3617e-005, 0.886984 0.151108, 0.713651 0.292907, 0.540524 0.434706, 0.38368 0.572589, 0.243323 0.706557 L -0.538015 1.44193, 0.484464 1.44193 C 0.627088 1.44214, 0.760231 1.44111, 0.883481 1.43884, 1.00694 1.43678, 1.11164 1.43225, 1.19779 1.42565, 1.28394 1.41906, 1.32805 1.41473, 1.33011 1.41225, 1.34824 1.397, 1.36535 1.36629, 1.38122 1.32013, 1.39709 1.27396, 1.41172 1.21955, 1.42533 1.15689, 1.43893 1.09424, 1.45253 1.03055, 1.46614 0.965629, 1.47974 0.900912, 1.4921 0.829806, 1.50344 0.752724 L 1.75468 0.752724 Z" stroke="none" fill="#000000" transform="matrix(1.12 0 0 1 11.6022 10.4826)" />
			<rect />
		</svg>
	</g>
	<g transform="matrix(1 0 -0 1 107.437 68.8295)">
		<svg width="44.9720879" height="36.0418549">
			<defs />
			<path d="M 9.72073 2.77757 C 9.6762 2.89571, 9.59743 2.9546, 9.48408 2.95423, 9.16057 2.9546, 8.85325 3.02526, 8.56213 3.16622, 8.27101 3.30019, 8.00602 3.50408, 7.76753 3.77864 L 5.61448 6.16355, 7.01562 9.86753 C 7.0561 9.96984, 7.09549 10.0545, 7.13376 10.1211, 7.17204 10.1881, 7.22356 10.237, 7.28834 10.268, 7.36121 10.3037, 7.46353 10.3243, 7.59492 10.3302, 7.72631 10.336, 7.87095 10.339, 8.02847 10.3386, 8.13778 10.339, 8.1963 10.3861, 8.2044 10.48, 8.2044 10.5039, 8.20035 10.5293, 8.19225 10.5565 L 8.16796 10.6507 C 8.12343 10.7685, 8.04467 10.8274, 7.93131 10.8274, 7.5272 10.8038, 7.12456 10.7921, 6.72413 10.7921 L 6.53017 10.7921 C 6.05724 10.8001, 5.5843 10.8119, 5.111 10.8274, 4.99765 10.8274, 4.94097 10.7766, 4.94097 10.6743 L 4.94097 10.6213, 4.9774 10.5212 C 5.00169 10.396, 5.07457 10.3349, 5.19602 10.3386, 5.29318 10.339, 5.38814 10.3272, 5.48089 10.3037, 5.574 10.2801, 5.66307 10.2429, 5.74772 10.1914, 5.83273 10.1329, 5.87322 10.0876, 5.86917 10.056 L 5.86917 10.0442, 4.7529 7.11752, 2.39964 9.73798 C 2.31499 9.83257, 2.2745 9.92274, 2.27855 10.0089, 2.27855 10.0486, 2.28886 10.0898, 2.30873 10.1325, 2.37351 10.2702, 2.50895 10.339, 2.71505 10.3386, 2.82841 10.339, 2.88509 10.3938, 2.88509 10.5035 L 2.88509 10.5447, 2.86079 10.6507 C 2.81626 10.7685, 2.73934 10.8274, 2.63003 10.8274, 2.22592 10.8119, 1.8196 10.8001, 1.41108 10.7921 L 1.23515 10.7921 C 0.887721 10.7921, 0.531825 10.8038, 0.167831 10.8274, 0.107472 10.8274, 0.0629392 10.8079, 0.034232 10.7685, 0.0103092 10.7453, -0.00183617 10.7177, -0.00220419 10.6861, -0.00183617 10.6629, 0.0022123 10.6393, 0.00994119 10.6154 L 0.034232 10.5271 C 0.0669877 10.3979, 0.143908 10.3349, 0.264626 10.3386, 0.418468 10.339, 0.572309 10.3224, 0.725783 10.2889, 0.879624 10.2558, 1.0331 10.2036, 1.18694 10.1329, 1.34078 10.0622, 1.48432 9.975, 1.61755 9.87084, 1.75078 9.76705, 1.87223 9.65002, 1.98117 9.5201 L 4.58323 6.64643, 3.35802 3.42532 C 3.31753 3.32742, 3.28036 3.24535, 3.24577 3.17837, 3.21154 3.11175, 3.16001 3.06243, 3.09119 3.03078, 3.01832 2.99582, 2.91637 2.97447, 2.78498 2.96637, 2.65359 2.95864, 2.50895 2.9546, 2.35106 2.95423, 2.2907 2.9546, 2.24616 2.93509, 2.21782 2.89534, 2.19353 2.87216, 2.18139 2.84271, 2.18139 2.80701, 2.18139 2.78382, 2.18765 2.76211, 2.19942 2.74224 L 2.21782 2.64802 C 2.26236 2.53061, 2.34112 2.47173, 2.45448 2.47136, 2.85895 2.49528, 3.25938 2.50706, 3.6554 2.50669, 3.71612 2.50706, 3.78495 2.50301, 3.8615 2.49491, 4.33075 2.49528, 4.80185 2.48755, 5.27478 2.47136, 5.38814 2.47173, 5.44445 2.52472, 5.44445 2.63035 L 5.44445 2.67746, 5.40801 2.77757 C 5.38372 2.89571, 5.30901 2.9546, 5.18388 2.95423, 4.97372 2.9546, 4.79154 3.00575, 4.6377 3.10733, 4.55305 3.15886, 4.51257 3.20008, 4.51661 3.231 L 4.51661 3.24277, 5.44445 5.68657, 7.35496 3.54898 C 7.41163 3.49451, 7.44623 3.42974, 7.45837 3.35466, 7.46647 3.33147, 7.47052 3.30976, 7.47052 3.28988, 7.47052 3.24719, 7.46058 3.20965, 7.43997 3.178, 7.37152 3.02931, 7.23203 2.9546, 7.02151 2.95423, 6.91662 2.9546, 6.86399 2.9016, 6.86399 2.79523 L 6.86399 2.75401, 6.88791 2.64802 C 6.93281 2.53061, 7.01157 2.47173, 7.12456 2.47136, 7.52904 2.48755, 7.93757 2.49528, 8.34977 2.49491, 8.40645 2.50301, 8.46129 2.50706, 8.51355 2.50669, 8.86135 2.50706, 9.2132 2.49528, 9.56909 2.47136, 9.6784 2.47173, 9.73692 2.52472, 9.74502 2.63035 L 9.74502 2.67157 Z" stroke="none" fill="#000000" />
			<path d="M 1.81199 0.812082 C 1.81199 1.00128, 1.77015 1.18286, 1.68648 1.3564, 1.6028 1.53015, 1.49068 1.67854, 1.35012 1.80138, 1.19162 1.94009, 1.01664 2.04273, 0.825376 2.10971, 0.634111 2.1769, 0.434191 2.21029, 0.22582 2.21029, 0.037854 2.21029, -0.145372 2.18391, -0.32427 2.13114, -0.503168 2.07838, -0.664341 2.00274, -0.808201 1.90381, -0.952061 1.80488, -1.06686 1.68349, -1.15301 1.53942, -1.23916 1.39556, -1.28224 1.23006, -1.28224 1.04292, -1.28224 0.902355, -1.23525 0.797448, -1.14126 0.728197, -1.04728 0.658947, -0.948145 0.624321, -0.844063 0.624115, -0.73524 0.624321, -0.634043 0.658947, -0.54006 0.728197, -0.446077 0.797448, -0.399085 0.902355, -0.399085 1.04292, -0.399085 1.1266, -0.415368 1.19646, -0.448344 1.25252, -0.481115 1.30858, -0.522954 1.35537, -0.574067 1.39268, -0.624975 1.43019, -0.683302 1.45306, -0.749049 1.46172, -0.78285 1.47079, -0.81459 1.47512, -0.844063 1.47491, -0.87333 1.47512, -0.877864 1.47738, -0.857666 1.48151, -0.787384 1.60476, -0.649295 1.71378, -0.443192 1.80818, -0.237088 1.90278, -0.0140841 1.94998, 0.22582 1.94977, 0.339177 1.94998, 0.444908 1.92195, 0.543426 1.86589, 0.641943 1.80983, 0.724179 1.7346, 0.78972 1.63979, 0.871337 1.51696, 0.926778 1.38505, 0.956251 1.24428, 0.985724 1.10372, 1.00036 0.959652, 1.00036 0.812082, 1.00036 0.660595, 0.985724 0.515086, 0.956251 0.375348, 0.926778 0.235816, 0.871337 0.106589, 0.78972 -0.0123327, 0.721705 -0.108789, 0.639058 -0.186902, 0.541777 -0.24626, 0.444496 -0.305618, 0.339177 -0.335297, 0.22582 -0.335503 L -0.266561 -0.335503 C -0.332102 -0.335297, -0.367345 -0.366006, -0.37188 -0.427837 L -0.37188 -0.464112 C -0.37188 -0.490287, -0.363842 -0.511103, -0.348178 -0.526767, -0.327774 -0.546347, -0.301805 -0.55624, -0.270065 -0.556446, -0.204318 -0.565102, -0.136303 -0.56943, -0.0662283 -0.569637, 0.00178587 -0.56943, 0.0685635 -0.573759, 0.134104 -0.582827, 0.25653 -0.591484, 0.362879 -0.6292, 0.453565 -0.69639, 0.54425 -0.763374, 0.620096 -0.849113, 0.681103 -0.953607, 0.74211 -1.0579, 0.788483 -1.17826, 0.820223 -1.3147, 0.851963 -1.45094, 0.867833 -1.59067, 0.867833 -1.73371, 0.867833 -1.83903, 0.856497 -1.93899, 0.833826 -2.03359, 0.811154 -2.12799, 0.769315 -2.21063, 0.708103 -2.28112, 0.581349 -2.42601, 0.420588 -2.49753, 0.22582 -2.49547, 0.0176558 -2.49526, -0.173196 -2.4561, -0.346323 -2.3782, -0.51945 -2.30008, -0.635692 -2.21599, -0.694638 -2.12613, -0.710302 -2.12366, -0.70247 -2.12263, -0.67073 -2.12283, -0.589113 -2.12263, -0.512236 -2.09851, -0.439894 -2.05028, -0.331071 -1.98639, -0.276866 -1.8786, -0.276866 -1.72711, -0.276866 -1.59933, -0.318087 -1.50308, -0.400734 -1.43836, -0.483382 -1.37344, -0.575716 -1.34108, -0.677531 -1.34129, -0.777285 -1.34108, -0.87065 -1.37282, -0.957832 -1.43671, -1.04501 -1.5004, -1.08871 -1.59727, -1.08871 -1.72711, -1.08871 -1.88746, -1.05017 -2.02906, -0.973084 -2.15231, -0.896001 -2.27535, -0.797071 -2.38087, -0.675882 -2.46888, -0.554694 -2.55668, -0.414955 -2.62387, -0.256462 -2.67004, -0.0977621 -2.7162, 0.0629987 -2.73929, 0.22582 -2.73949, 0.400184 -2.73929, 0.568983 -2.7162, 0.732011 -2.67004, 0.895038 -2.62387, 1.049 -2.55235, 1.19389 -2.4559, 1.31178 -2.37222, 1.41071 -2.26937, 1.49109 -2.14736, 1.57147 -2.02535, 1.61166 -1.88746, 1.61166 -1.73371, 1.61166 -1.57954, 1.58404 -1.43445, 1.5286 -1.29821, 1.47316 -1.16177, 1.39958 -1.03873, 1.30786 -0.928875, 1.21615 -0.818816, 1.10691 -0.722153, 0.979953 -0.638681, 0.853199 -0.555003, 0.75798 -0.502447, 0.6945 -0.4806, 0.748911 -0.473798, 0.841864 -0.441234, 0.973152 -0.383113, 1.10465 -0.324785, 1.23016 -0.247291, 1.35012 -0.150834, 1.49068 -0.0296452, 1.6028 0.114833, 1.68648 0.283014, 1.77015 0.451194, 1.81199 0.627619, 1.81199 0.812082 Z" stroke="none" fill="#000000" transform="matrix(1.12 0 0 1 11.6566 10.4826)" />
			<rect />
		</svg>
	</g>
	<path d="M -80.9697 -78.8714 L 113.697 78.8714, -113.697 78.8714 Z" fill="none" stroke="#000000" stroke-width="1.60000002" stroke-linecap="round" stroke-linejoin="round" transform="matrix(0.625 0 -0 0.625 254.279 71.0505)" />
	<path d="M 0 0 L 20.138 157.743" fill="none" stroke="#000000" stroke-width="1.60000002" stroke-linecap="round" stroke-linejoin="round" transform="matrix(0.625 0 0 0.625 203.672 21.756)" />
	<path d="M 0 0 L 106.428 156.879" fill="none" stroke="#000000" stroke-width="1.60000002" stroke-linecap="round" stroke-linejoin="round" transform="matrix(0.625 0 0 0.625 203.741 22.2957)" />
	<g transform="matrix(1 0 -0 1 325.056 121.913)">
		<svg width="36.0418549" height="30.0139503">
			<defs />
			<path d="M 7.97032 10.6507 C 7.92616 10.7685, 7.84924 10.8274, 7.73993 10.8274, 7.33582 10.8038, 6.93318 10.7921, 6.53275 10.7921 L 6.33253 10.7921 C 5.8596 10.8001, 5.38446 10.8119, 4.90748 10.8274, 4.79854 10.8274, 4.73965 10.7766, 4.73155 10.6743 L 4.73155 10.6272, 4.75584 10.5271 C 4.78823 10.3979, 4.86699 10.3349, 4.99213 10.3386, 5.14192 10.339, 5.27552 10.3342, 5.39256 10.3243, 5.50996 10.3147, 5.62332 10.2801, 5.73226 10.2208, 5.77274 10.2017, 5.80734 10.1741, 5.83531 10.1384, 5.8515 10.1075, 5.86181 10.0758, 5.86549 10.0442 L 5.86549 10.0089, 5.72011 8.05382, 2.97857 8.05382, 2.0143 9.70265 C 1.96167 9.79723, 1.93517 9.88372, 1.93517 9.96175, 1.93517 10.0287, 1.95541 10.0898, 1.9959 10.1443, 2.08496 10.2742, 2.25095 10.339, 2.49312 10.3386, 2.60243 10.339, 2.66095 10.3861, 2.66904 10.48, 2.66904 10.5039, 2.665 10.5293, 2.6569 10.5565 L 2.63298 10.6507 C 2.58844 10.7685, 2.50968 10.8274, 2.39633 10.8274, 2.0246 10.8119, 1.65656 10.8001, 1.2922 10.7921 L 1.12879 10.7921 C 0.813377 10.7921, 0.493917 10.8038, 0.170408 10.8274, 0.109681 10.8274, 0.0651477 10.8079, 0.0368085 10.7685, 0.0125177 10.7453, 0.000372291 10.7177, 0.000372291 10.6861, 0.000372291 10.6629, 0.00442076 10.6393, 0.0125177 10.6154 L 0.0368085 10.5271 C 0.0691962 10.3979, 0.148325 10.3349, 0.273459 10.3386, 0.40301 10.339, 0.530353 10.3254, 0.655487 10.2978, 0.780989 10.2705, 0.898395 10.2212, 1.00734 10.1506, 1.11664 10.0799, 1.21786 9.9945, 1.3106 9.8944, 1.40372 9.79429, 1.48653 9.6813, 1.5594 9.55543 L 5.8412 2.22403 C 5.91407 2.11436, 6.00719 2.06136, 6.12054 2.06504 L 6.23574 2.06504 C 6.36529 2.06541, 6.43779 2.12613, 6.45399 2.24759 L 6.98765 9.92053 C 6.99575 10.0228, 7.00789 10.1005, 7.02409 10.1535, 7.04028 10.2065, 7.06862 10.2448, 7.1091 10.268, 7.16578 10.3037, 7.25963 10.3243, 7.39102 10.3302, 7.52278 10.336, 7.6711 10.339, 7.83672 10.3386, 7.95008 10.339, 8.00676 10.3861, 8.00676 10.48, 8.00676 10.5039, 8.00271 10.5293, 7.99461 10.5565 Z M 5.42899 3.87875 L 3.26969 7.57684, 5.68368 7.57684 Z" stroke="none" fill="#000000" />
			<path d="M 9.3109 6.5051 C 9.27851 6.59564, 9.22404 6.64091, 9.14712 6.64054 L 9.09854 6.64054, 9.0621 6.62287 C 8.98555 6.60373, 8.94286 6.55074, 8.93476 6.46388 L 8.93476 6.42266, 9.54718 2.62446 C 9.57589 2.44412, 9.66164 2.30795, 9.80518 2.21557, 9.94872 2.12356, 10.0934 2.07718, 10.2387 2.07682, 10.3966 2.07718, 10.524 2.12613, 10.6208 2.22403, 10.6819 2.28329, 10.712 2.36168, 10.712 2.45958, 10.712 2.53061, 10.694 2.61305, 10.6572 2.7069 Z" stroke="none" fill="#000000" />
			<rect />
		</svg>
	</g>
	<g transform="matrix(1 0 -0 1 198.105 7.74998)">
		<svg width="38.9441795" height="30.0139503">
			<defs />
			<path d="M 8.37848 4.5795 C 8.31002 4.86253, 8.17348 5.12752, 7.96922 5.37484, 7.76495 5.62216, 7.52941 5.83232, 7.26258 6.00456, 7.05242 6.14626, 6.83712 6.25814, 6.61666 6.34058, 6.39621 6.42302, 6.31818 6.45836, 6.38296 6.44621, 6.37118 6.44253, 6.47718 6.49295, 6.70168 6.59674, 6.92619 6.7009, 7.12309 6.84296, 7.29276 7.0233, 7.48303 7.21616, 7.61258 7.44765, 7.68104 7.71816, 7.71343 7.85213, 7.73183 7.98352, 7.73551 8.11271, 7.73551 8.26213, 7.71343 8.41744, 7.6689 8.57791, 7.59234 8.88044, 7.45065 9.16935, 7.24454 9.44391, 7.03844 9.71884, 6.79148 9.95807, 6.50441 10.162, 6.20114 10.3821, 5.87874 10.548, 5.5372 10.6599, 5.19565 10.7718, 4.85485 10.8274, 4.51478 10.8274 L 0.172248 10.8274 C 0.111521 10.8274, 0.0669878 10.8097, 0.0386485 10.7744, 0.0106774 10.7471, -0.00367628 10.7177, -0.00367628 10.6861, -0.00367628 10.6629, 0.00037218 10.6393, 0.0084691 10.6154 L 0.0327599 10.5271 C 0.0570506 10.3979, 0.135812 10.3349, 0.269043 10.3386, 0.459321 10.339, 0.637453 10.336, 0.803072 10.3302, 0.968691 10.3243, 1.09419 10.3037, 1.17884 10.268, 1.25171 10.2289, 1.30839 10.123, 1.34888 9.94997 L 3.05328 3.31344 C 3.07757 3.22732, 3.08935 3.1607, 3.08935 3.11322, 3.08935 3.06648, 3.07941 3.03888, 3.05917 3.03078, 3.00249 2.99582, 2.89245 2.97447, 2.72867 2.96637, 2.56489 2.95864, 2.38602 2.9546, 2.19169 2.95423, 2.13134 2.9546, 2.0868 2.93509, 2.05846 2.89534, 2.03417 2.87216, 2.02203 2.84271, 2.02203 2.80701, 2.02203 2.78382, 2.02828 2.76211, 2.04006 2.74224 L 2.05846 2.65391 C 2.07061 2.59944, 2.10005 2.55527, 2.14642 2.52178, 2.1928 2.48866, 2.24248 2.47173, 2.29511 2.47136 L 6.31634 2.47136 C 6.64795 2.47173, 6.96115 2.52104, 7.25632 2.61894, 7.55149 2.71721, 7.79624 2.87216, 7.9902 3.08378, 8.18047 3.27663, 8.31407 3.5004, 8.39063 3.75509, 8.42301 3.88501, 8.43921 4.0164, 8.43921 4.14963, 8.43921 4.29133, 8.41896 4.43449, 8.37848 4.5795 Z M 7.15327 4.55595 C 7.19375 4.39916, 7.21399 4.24238, 7.21399 4.08485 L 7.21399 3.94353 C 7.1978 3.75546, 7.14112 3.58064, 7.04396 3.41943, 6.95931 3.27443, 6.84706 3.1607, 6.70757 3.07826, 6.56808 2.99582, 6.40541 2.9546, 6.21918 2.95423 L 4.61783 2.95423 C 4.40363 2.9546, 4.28033 2.96821, 4.24794 2.99545, 4.19936 3.0352, 4.15299 3.14892, 4.10846 3.33699 L 3.35655 6.29311, 5.01237 6.29311 C 5.24276 6.29347, 5.47132 6.24857, 5.69766 6.15803, 5.92438 6.06786, 6.14042 5.94015, 6.34652 5.7749, 6.77529 5.42968, 7.04433 5.02336, 7.15327 4.55595 Z M 6.40725 8.54258 C 6.46393 8.34273, 6.49226 8.14436, 6.49226 7.94782 L 6.49226 7.82416 C 6.47607 7.60481, 6.41755 7.40238, 6.31634 7.21763, 6.22727 7.05716, 6.10692 6.92651, 5.95529 6.8264, 5.80366 6.72629, 5.627 6.67624, 5.42457 6.67587 L 3.24724 6.67587, 2.40405 9.97353 C 2.37167 10.1075, 2.35547 10.2036, 2.35547 10.2621, 2.35547 10.2937, 2.35768 10.3114, 2.36173 10.3151, 2.36983 10.3272, 2.47509 10.3349, 2.67714 10.3386 L 4.29653 10.3386 C 4.51882 10.339, 4.74333 10.2911, 4.96968 10.1947, 5.19639 10.0987, 5.4047 9.97205, 5.59461 9.81453, 5.80513 9.63824, 5.97774 9.44023, 6.11318 9.22014, 6.24862 9.00042, 6.34689 8.77444, 6.40725 8.54258 Z" stroke="none" fill="#000000" />
			<path d="M 9.7474 6.5051 C 9.71501 6.59564, 9.66054 6.64091, 9.58362 6.64054 L 9.53504 6.64054, 9.4986 6.62287 C 9.42205 6.60373, 9.37936 6.55074, 9.37126 6.46388 L 9.37126 6.42266, 9.98368 2.62446 C 10.0124 2.44412, 10.0981 2.30795, 10.2417 2.21557, 10.3852 2.12356, 10.5299 2.07718, 10.6752 2.07682, 10.8331 2.07718, 10.9605 2.12613, 11.0573 2.22403, 11.1184 2.28329, 11.1485 2.36168, 11.1485 2.45958, 11.1485 2.53061, 11.1305 2.61305, 11.0937 2.7069 Z" stroke="none" fill="#000000" />
			<rect />
		</svg>
	</g>
	<g transform="matrix(1 0 -0 1 170.854 121.913)">
		<svg width="38.9441795" height="32.916275">
			<defs />
			<path d="M 7.50364 5.60413 C 7.47935 5.71454, 7.40869 5.77122, 7.29128 5.7749 L 7.15805 5.7749 C 7.0653 5.77527, 7.01451 5.72816, 7.00642 5.63357 L 7.00642 5.58646 C 7.0469 5.33951, 7.06935 5.10212, 7.07303 4.87394, 7.07303 4.74475, 7.06898 4.61336, 7.06089 4.47939, 7.0204 4.13417, 6.9295 3.82906, 6.78817 3.56407, 6.64684 3.29908, 6.45656 3.08709, 6.21807 2.9281, 5.97958 2.7691, 5.68809 2.68961, 5.34434 2.68924, 4.92404 2.68961, 4.50152 2.79192, 4.0768 2.99582, 3.65245 3.20008, 3.26821 3.4728, 2.92446 3.81397, 2.52403 4.21882, 2.21083 4.66636, 1.98448 5.15696, 1.75814 5.64793, 1.58001 6.1481, 1.45046 6.6582, 1.30913 7.17677, 1.22816 7.67915, 1.20792 8.1657 L 1.20792 8.33059 C 1.20792 8.75899, 1.29293 9.14948, 1.4626 9.50243, 1.62454 9.83661, 1.86082 10.1057, 2.17219 10.3095, 2.48355 10.5138, 2.8538 10.6158, 3.2822 10.6154, 3.63 10.6158, 3.97154 10.5414, 4.3072 10.392, 4.64285 10.2429, 4.95127 10.0416, 5.23245 9.7884, 5.51364 9.53519, 5.75912 9.24186, 5.96927 8.90804, 6.17979 8.5746, 6.33143 8.22091, 6.42417 7.84771, 6.44847 7.73804, 6.5195 7.6832, 6.63654 7.68283 L 6.76977 7.68283 C 6.87098 7.6832, 6.92545 7.72626, 6.93355 7.81238, 6.93355 7.83631, 6.92766 7.85802, 6.91551 7.87716, 6.80657 8.30924, 6.6266 8.71961, 6.37559 9.10826, 6.12496 9.49691, 5.82684 9.83772, 5.48088 10.1299, 5.13529 10.4225, 4.75621 10.6559, 4.34363 10.8303, 3.93143 11.0051, 3.50671 11.0924, 3.06984 11.0924, 2.51189 11.0924, 2.01577 10.9757, 1.58111 10.7424, 1.14645 10.509, 0.7935 10.1859, 0.522622 9.77331, 0.239597 9.33019, 0.0736103 8.83922, 0.0250288 8.30114, 0.0088349 8.15613, 0.000737965 8.00524, 0.000737965 7.84771, 0.000737965 7.4517, 0.0515278 7.04722, 0.152371 6.63465, 0.306213 6.05793, 0.550225 5.50145, 0.883671 4.96558, 1.21712 4.42971, 1.63448 3.94205, 2.13575 3.50187, 2.60905 3.10181, 3.12173 2.78382, 3.6738 2.54828, 4.22586 2.31273, 4.77866 2.19496, 5.33219 2.19459, 5.77311 2.19496, 6.15035 2.29212, 6.46356 2.48645, 6.77713 2.68077, 7.00863 2.91522, 7.15805 3.18978 L 7.97694 2.27703 C 8.00933 2.22256, 8.0638 2.19496, 8.14072 2.19459 L 8.18894 2.19459 C 8.2861 2.19496, 8.33468 2.24207, 8.33468 2.33592 L 8.33468 2.38303 Z" stroke="none" fill="#000000" />
			<path d="M 9.63846 6.5051 C 9.60607 6.59564, 9.5516 6.64091, 9.47468 6.64054 L 9.4261 6.64054, 9.38966 6.62287 C 9.31311 6.60373, 9.27042 6.55074, 9.26232 6.46388 L 9.26232 6.42266, 9.87474 2.62446 C 9.90345 2.44412, 9.9892 2.30795, 10.1327 2.21557, 10.2763 2.12356, 10.4209 2.07718, 10.5663 2.07682, 10.7242 2.07718, 10.8515 2.12613, 10.9483 2.22403, 11.0094 2.28329, 11.0396 2.36168, 11.0396 2.45958, 11.0396 2.53061, 11.0216 2.61305, 10.9848 2.7069 Z" stroke="none" fill="#000000" />
			<rect />
		</svg>
	</g>
	<g transform="matrix(1 0 -0 1 210.361 121.913)">
		<svg width="38.9441795" height="30.0139503">
			<defs />
			<path d="M 8.79197 6.74064 C 8.65433 7.27099, 8.43718 7.78331, 8.1398 8.27796, 7.84279 8.7726, 7.46997 9.22198, 7.02096 9.62609, 6.61243 9.99156, 6.16379 10.283, 5.67429 10.5009, 5.18516 10.7188, 4.69603 10.8274, 4.20654 10.8274 L 0.173167 10.8274 C 0.0642262 10.8274, 0.00570749 10.7766, -0.00275747 10.6743 L -0.00275747 10.6272, 0.0215333 10.5271 C 0.053921 10.3979, 0.132682 10.3349, 0.257816 10.3386, 0.448094 10.339, 0.628066 10.336, 0.797734 10.3302, 0.967769 10.3243, 1.0929 10.3037, 1.17387 10.268, 1.25079 10.2253, 1.30931 10.1193, 1.3498 9.94997 L 3.0542 3.31344 C 3.07849 3.22732, 3.09027 3.1607, 3.09027 3.11322, 3.09027 3.06648, 3.08033 3.03888, 3.06009 3.03078, 3.00341 2.99582, 2.89336 2.97447, 2.72959 2.96637, 2.56581 2.95864, 2.38694 2.9546, 2.19261 2.95423, 2.07962 2.9546, 2.02295 2.9016, 2.02295 2.79523 L 2.02295 2.74813, 2.05938 2.64802 C 2.08367 2.53061, 2.15875 2.47173, 2.28389 2.47136 L 6.3294 2.47136 C 6.83068 2.47173, 7.26754 2.58766, 7.63963 2.81916, 8.01172 3.05102, 8.31094 3.35503, 8.53729 3.73153, 8.77983 4.15589, 8.91711 4.62698, 8.9495 5.14481, 8.95759 5.25523, 8.96164 5.35717, 8.96164 5.45103, 8.96164 5.87133, 8.90533 6.3012, 8.79197 6.74064 Z M 7.62123 4.00241 C 7.48395 3.67706, 7.26865 3.42091, 6.97532 3.23431, 6.68236 3.04808, 6.33971 2.9546, 5.94738 2.95423 L 4.64304 2.95423 C 4.43693 2.9546, 4.31364 2.97042, 4.27315 3.00171, 4.23267 3.03336, 4.19034 3.14487, 4.14581 3.33699 L 2.42926 9.97353 C 2.39688 10.1075, 2.38068 10.2036, 2.38068 10.2621 L 2.38068 10.3092 C 2.39688 10.3254, 2.50434 10.3349, 2.70235 10.3386 L 4.00632 10.3386 C 4.4027 10.339, 4.79798 10.2499, 5.19215 10.0711, 5.5867 9.89256, 5.93928 9.64413, 6.25064 9.32577, 6.60654 8.95699, 6.87963 8.54589, 7.06954 8.09246, 7.25945 7.63904, 7.41108 7.18082, 7.52407 6.71709, 7.64957 6.23459, 7.73643 5.7576, 7.78501 5.28614, 7.79311 5.17647, 7.79716 5.07047, 7.79716 4.96815, 7.79716 4.62293, 7.73864 4.30126, 7.62123 4.00241 Z" stroke="none" fill="#000000" />
			<path d="M 10.2689 6.5051 C 10.2365 6.59564, 10.1821 6.64091, 10.1051 6.64054 L 10.0566 6.64054, 10.0201 6.62287 C 9.94356 6.60373, 9.90087 6.55074, 9.89277 6.46388 L 9.89277 6.42266, 10.5052 2.62446 C 10.5339 2.44412, 10.6197 2.30795, 10.7632 2.21557, 10.9067 2.12356, 11.0514 2.07718, 11.1967 2.07682, 11.3546 2.07718, 11.482 2.12613, 11.5788 2.22403, 11.6399 2.28329, 11.67 2.36168, 11.67 2.45958, 11.67 2.53061, 11.652 2.61305, 11.6152 2.7069 Z" stroke="none" fill="#000000" />
			<rect />
		</svg>
	</g>
	<g transform="matrix(1 0 -0 1 268.8 121.913)">
		<svg width="38.9441795" height="30.0139503">
			<defs />
			<path d="M 8.28352 5.13893 C 8.27175 5.19045, 8.24525 5.23462, 8.20476 5.27179, 8.16428 5.30933, 8.12011 5.32773, 8.07153 5.32736, 8.05534 5.33546, 8.0351 5.33951, 8.01081 5.33914, 7.96222 5.33951, 7.93793 5.33546, 7.93793 5.32736, 7.83709 5.32773, 7.78225 5.28467, 7.77416 5.19781 L 7.77416 5.15659 C 7.79845 4.97257, 7.81869 4.78597, 7.83488 4.59717, 7.85108 4.45216, 7.85917 4.31893, 7.85917 4.19674 L 7.85917 4.09663 C 7.85108 3.93985, 7.83194 3.79962, 7.80176 3.67596, 7.77158 3.5523, 7.71784 3.4474, 7.64092 3.36055, 7.48708 3.18021, 7.25853 3.07347, 6.95526 3.03998, 6.65199 3.00686, 6.32849 2.98993, 5.98473 2.98956 L 4.68076 2.98956 C 4.46656 2.98993, 4.34143 3.00575, 4.30499 3.03667, 4.28475 3.05286, 4.24426 3.16843, 4.18354 3.3841 L 3.43126 6.25777, 4.26855 6.25777 C 4.49527 6.25814, 4.70137 6.24857, 4.88723 6.2287, 5.07346 6.20919, 5.23319 6.15031, 5.36642 6.05167, 5.48788 5.95377, 5.57989 5.81649, 5.64246 5.63983, 5.70502 5.46317, 5.76685 5.26112, 5.82721 5.03293, 5.87175 4.91552, 5.94867 4.85848, 6.05761 4.86216 L 6.16066 4.86216 C 6.27402 4.86253, 6.33069 4.91368, 6.33069 5.01526 L 6.33069 5.05648, 5.57253 7.97138 C 5.54824 8.09357, 5.46948 8.15245, 5.33588 8.14804 L 5.23871 8.14804 C 5.12572 8.14841, 5.06905 8.1013, 5.06905 8.00671, 5.06905 7.98352, 5.0753 7.96181, 5.08708 7.94193, 5.14008 7.72258, 5.17835 7.52016, 5.20265 7.3354, 5.21074 7.28866, 5.21479 7.24744, 5.21479 7.21174, 5.21479 7.10206, 5.1905 7.01373, 5.14192 6.94675, 5.07346 6.8529, 4.9509 6.79696, 4.77498 6.77929, 4.59906 6.76162, 4.40215 6.75279, 4.18354 6.75242 L 3.31017 6.75242, 2.47913 9.97941 C 2.43865 10.1171, 2.41841 10.2194, 2.41841 10.2856 L 2.41841 10.3092 C 2.4346 10.3254, 2.54796 10.3349, 2.75811 10.3386 L 4.1471 10.3386 C 4.50705 10.339, 4.85595 10.3147, 5.19344 10.2654, 5.53131 10.2164, 5.84561 10.0917, 6.13637 9.89108, 6.26592 9.79723, 6.38958 9.67173, 6.50662 9.51458, 6.62402 9.35779, 6.73517 9.18408, 6.84043 8.99343, 6.94569 8.80315, 7.04543 8.6011, 7.14039 8.3869, 7.23534 8.17306, 7.32956 7.96181, 7.42231 7.7535, 7.45469 7.65965, 7.52573 7.61254, 7.63467 7.61217 L 7.73772 7.61217 C 7.85108 7.61254, 7.90775 7.66369, 7.90775 7.76527 L 7.90775 7.81238, 6.70058 10.6861 C 6.65641 10.7803, 6.58354 10.8274, 6.48233 10.8274 L 0.174456 10.8274 C 0.113729 10.8274, 0.069196 10.8097, 0.0408567 10.7744, 0.0128856 10.7471, -0.00110004 10.7177, -0.00146808 10.6861, -0.00110004 10.6629, 0.00294842 10.6393, 0.0106773 10.6154 L 0.0349681 10.5271 C 0.0471135 10.4763, 0.0754527 10.4325, 0.119986 10.3949, 0.164519 10.3578, 0.214941 10.339, 0.271251 10.3386, 0.461529 10.339, 0.639661 10.336, 0.80528 10.3302, 0.970899 10.3243, 1.0964 10.3037, 1.18105 10.268, 1.25392 10.2289, 1.3106 10.123, 1.35109 9.94997 L 3.05549 3.35466 C 3.07978 3.26854, 3.09192 3.20008, 3.09192 3.14855, 3.09192 3.10181, 3.08199 3.07421, 3.06138 3.06611, 3.0047 3.03115, 2.89355 3.0098, 2.72793 3.00171, 2.56231 2.99398, 2.38418 2.98993, 2.1939 2.98956, 2.08091 2.98993, 2.02424 2.93693, 2.02424 2.83057 L 2.02424 2.78935, 2.04853 2.68924 C 2.08091 2.56005, 2.16004 2.49528, 2.28518 2.49491 L 8.42927 2.49491 C 8.53048 2.49528, 8.58495 2.54423, 8.59305 2.64213 L 8.59305 2.68335 Z" stroke="none" fill="#000000" />
			<path d="M 9.89903 6.5051 C 9.86664 6.59564, 9.81217 6.64091, 9.73525 6.64054 L 9.68667 6.64054, 9.65024 6.62287 C 9.57368 6.60373, 9.53099 6.55074, 9.52289 6.46388 L 9.52289 6.42266, 10.1353 2.62446 C 10.164 2.44412, 10.2498 2.30795, 10.3933 2.21557, 10.5368 2.12356, 10.6815 2.07718, 10.8269 2.07682, 10.9848 2.07718, 11.1121 2.12613, 11.2089 2.22403, 11.27 2.28329, 11.3002 2.36168, 11.3002 2.45958, 11.3002 2.53061, 11.2821 2.61305, 11.2453 2.7069 Z" stroke="none" fill="#000000" />
			<rect />
		</svg>
	</g>
	<g transform="matrix(1 0 -0 1 195.009 93.0301)">
		<svg width="36.0418549" height="36.0418549">
			<defs />
			<path d="M 8.42871 2.77168 C 8.41657 2.82689, 8.38713 2.87142, 8.34075 2.90454, 8.29438 2.93803, 8.24469 2.9546, 8.19206 2.95423, 7.92523 2.9546, 7.6665 3.01937, 7.4155 3.14855, 7.14903 3.29798, 6.90244 3.50629, 6.67573 3.77275 L 3.54001 7.50617, 2.89704 9.97941 C 2.87275 10.0504, 2.86061 10.1134, 2.86061 10.1679, 2.86061 10.2231, 2.87091 10.2565, 2.89079 10.268, 2.94747 10.3037, 3.06082 10.3243, 3.23049 10.3302, 3.40053 10.336, 3.5805 10.339, 3.77041 10.3386, 3.87567 10.339, 3.92793 10.3901, 3.92793 10.4917 L 3.92793 10.5447, 3.90401 10.6507 C 3.85947 10.7685, 3.78255 10.8274, 3.67324 10.8274, 3.17602 10.8038, 2.6707 10.7921, 2.15691 10.7921, 1.65159 10.7921, 1.14222 10.8038, 0.628433 10.8274, 0.52759 10.8274, 0.472752 10.7766, 0.464655 10.6743 L 0.464655 10.6213, 0.495202 10.5212 C 0.52759 10.396, 0.604511 10.3349, 0.725597 10.3386, 0.915874 10.339, 1.09401 10.336, 1.25963 10.3302, 1.42524 10.3243, 1.55075 10.3037, 1.6354 10.268, 1.70827 10.2289, 1.76716 10.123, 1.81132 9.94997 L 2.45429 7.47673, 1.12603 3.41943 C 1.09769 3.31785, 1.0664 3.23541, 1.03181 3.17248, 0.99758 3.10991, 0.947158 3.0617, 0.880174 3.0282, 0.813559 2.99508, 0.715659 2.97447, 0.586109 2.96637, 0.456926 2.95864, 0.313389 2.9546, 0.155499 2.95423, 0.0502395 2.9546, -0.00239053 2.9016, -0.00239053 2.79523 L -0.00239053 2.75401, 0.0219002 2.64802 C 0.0668014 2.53061, 0.143722 2.47173, 0.252663 2.47136, 0.657141 2.49528, 1.06346 2.50706, 1.47162 2.50669, 1.53234 2.50706, 1.59712 2.50301, 1.66558 2.49491, 2.14293 2.49528, 2.62028 2.48755, 3.09726 2.47136, 3.20657 2.47173, 3.26509 2.52472, 3.27318 2.63035 L 3.27318 2.67746, 3.23675 2.77757 C 3.21246 2.89571, 3.13774 2.9546, 3.01224 2.95423, 2.86686 2.9546, 2.73842 2.96048, 2.62727 2.97226, 2.51612 2.98404, 2.42006 3.01348, 2.33909 3.06022, 2.3148 3.0801, 2.30266 3.11359, 2.30266 3.16033, 2.30266 3.1883, 2.3067 3.21959, 2.3148 3.25455 L 3.48518 6.84664, 6.25727 3.56665 C 6.32609 3.48053, 6.37651 3.39809, 6.4089 3.31933, 6.42105 3.27663, 6.42693 3.23541, 6.42693 3.19566, 6.42693 3.17248, 6.42509 3.15297, 6.42105 3.13678, 6.36437 3.01532, 6.23114 2.9546, 6.02062 2.95423, 5.91977 2.9546, 5.86493 2.9016, 5.85684 2.79523 L 5.85684 2.75401, 5.88113 2.64802 C 5.92566 2.53061, 6.00442 2.47173, 6.11778 2.47136, 6.47368 2.48755, 6.83546 2.49528, 7.2035 2.49491, 7.25208 2.50301, 7.3003 2.50706, 7.34888 2.50669, 7.65656 2.50706, 7.96977 2.49528, 8.28923 2.47136, 8.34591 2.47173, 8.39633 2.49123, 8.44086 2.53024, 8.45705 2.5619, 8.46515 2.59134, 8.46515 2.61857, 8.46515 2.6425, 8.45926 2.66421, 8.44675 2.68335 Z" stroke="none" fill="#000000" />
			<path d="M 1.52816 2.0553 C 1.11163 2.04211, 0.706223 2.03551, 0.312153 2.03551, -0.0817108 2.03551, -0.487116 2.04211, -0.903858 2.0553 L -0.903858 1.7717, -0.669312 1.7717 C -0.594702 1.77191, -0.524421 1.77088, -0.45888 1.76861, -0.393133 1.76655, -0.33089 1.76098, -0.271944 1.75212, -0.212999 1.74346, -0.162091 1.7346, -0.119222 1.72553, -0.0829474 1.71914, -0.0528563 1.69894, -0.0291544 1.66473, -0.0052464 1.63072, 0.00650156 1.5928, 0.00650156 1.55076 L 0.00650156 -2.1657 C -0.106649 -2.11047, -0.245975 -2.06863, -0.41127 -2.04019, -0.576565 -2.01154, -0.75773 -1.99732, -0.954765 -1.99752 L -0.954765 -2.27782 C -0.682915 -2.27762, -0.432087 -2.30997, -0.202281 -2.3749, 0.0275241 -2.43961, 0.226208 -2.56122, 0.39377 -2.73949 L 0.499089 -2.73949 C 0.573698 -2.73929, 0.611003 -2.70301, 0.611003 -2.63067 L 0.611003 1.55076 C 0.611003 1.59486, 0.622339 1.6334, 0.64501 1.66638, 0.667682 1.69936, 0.700658 1.71914, 0.743528 1.72553, 0.779802 1.7346, 0.826381 1.74346, 0.882854 1.75212, 0.939532 1.76098, 1.00342 1.76655, 1.07474 1.76861, 1.14605 1.77088, 1.21571 1.77191, 1.28352 1.7717 L 1.52816 1.7717, 1.52816 2.0553 Z" stroke="none" fill="#000000" transform="matrix(1.12 0 0 1 8.60371 10.4826)" />
			<rect />
		</svg>
	</g>
	<g transform="matrix(1 0 -0 1 225.498 93.0301)">
		<svg width="36.0418549" height="36.0418549">
			<defs />
			<path d="M 8.42871 2.77168 C 8.41657 2.82689, 8.38713 2.87142, 8.34075 2.90454, 8.29438 2.93803, 8.24469 2.9546, 8.19206 2.95423, 7.92523 2.9546, 7.6665 3.01937, 7.4155 3.14855, 7.14903 3.29798, 6.90244 3.50629, 6.67573 3.77275 L 3.54001 7.50617, 2.89704 9.97941 C 2.87275 10.0504, 2.86061 10.1134, 2.86061 10.1679, 2.86061 10.2231, 2.87091 10.2565, 2.89079 10.268, 2.94747 10.3037, 3.06082 10.3243, 3.23049 10.3302, 3.40053 10.336, 3.5805 10.339, 3.77041 10.3386, 3.87567 10.339, 3.92793 10.3901, 3.92793 10.4917 L 3.92793 10.5447, 3.90401 10.6507 C 3.85947 10.7685, 3.78255 10.8274, 3.67324 10.8274, 3.17602 10.8038, 2.6707 10.7921, 2.15691 10.7921, 1.65159 10.7921, 1.14222 10.8038, 0.628433 10.8274, 0.52759 10.8274, 0.472752 10.7766, 0.464655 10.6743 L 0.464655 10.6213, 0.495202 10.5212 C 0.52759 10.396, 0.604511 10.3349, 0.725597 10.3386, 0.915874 10.339, 1.09401 10.336, 1.25963 10.3302, 1.42524 10.3243, 1.55075 10.3037, 1.6354 10.268, 1.70827 10.2289, 1.76716 10.123, 1.81132 9.94997 L 2.45429 7.47673, 1.12603 3.41943 C 1.09769 3.31785, 1.0664 3.23541, 1.03181 3.17248, 0.99758 3.10991, 0.947158 3.0617, 0.880174 3.0282, 0.813559 2.99508, 0.715659 2.97447, 0.586109 2.96637, 0.456926 2.95864, 0.313389 2.9546, 0.155499 2.95423, 0.0502395 2.9546, -0.00239053 2.9016, -0.00239053 2.79523 L -0.00239053 2.75401, 0.0219002 2.64802 C 0.0668014 2.53061, 0.143722 2.47173, 0.252663 2.47136, 0.657141 2.49528, 1.06346 2.50706, 1.47162 2.50669, 1.53234 2.50706, 1.59712 2.50301, 1.66558 2.49491, 2.14293 2.49528, 2.62028 2.48755, 3.09726 2.47136, 3.20657 2.47173, 3.26509 2.52472, 3.27318 2.63035 L 3.27318 2.67746, 3.23675 2.77757 C 3.21246 2.89571, 3.13774 2.9546, 3.01224 2.95423, 2.86686 2.9546, 2.73842 2.96048, 2.62727 2.97226, 2.51612 2.98404, 2.42006 3.01348, 2.33909 3.06022, 2.3148 3.0801, 2.30266 3.11359, 2.30266 3.16033, 2.30266 3.1883, 2.3067 3.21959, 2.3148 3.25455 L 3.48518 6.84664, 6.25727 3.56665 C 6.32609 3.48053, 6.37651 3.39809, 6.4089 3.31933, 6.42105 3.27663, 6.42693 3.23541, 6.42693 3.19566, 6.42693 3.17248, 6.42509 3.15297, 6.42105 3.13678, 6.36437 3.01532, 6.23114 2.9546, 6.02062 2.95423, 5.91977 2.9546, 5.86493 2.9016, 5.85684 2.79523 L 5.85684 2.75401, 5.88113 2.64802 C 5.92566 2.53061, 6.00442 2.47173, 6.11778 2.47136, 6.47368 2.48755, 6.83546 2.49528, 7.2035 2.49491, 7.25208 2.50301, 7.3003 2.50706, 7.34888 2.50669, 7.65656 2.50706, 7.96977 2.49528, 8.28923 2.47136, 8.34591 2.47173, 8.39633 2.49123, 8.44086 2.53024, 8.45705 2.5619, 8.46515 2.59134, 8.46515 2.61857, 8.46515 2.6425, 8.45926 2.66421, 8.44675 2.68335 Z" stroke="none" fill="#000000" />
			<path d="M 1.53724 2.0553 L -1.22743 2.0553, -1.22743 1.87393 C -1.22743 1.86094, -1.22063 1.84116, -1.20703 1.81457 L -0.0963354 0.607627 C 0.0349525 0.462736, 0.167889 0.314342, 0.302681 0.162649, 0.437473 0.010957, 0.558249 -0.144033, 0.664599 -0.30232, 0.770948 -0.460608, 0.855863 -0.623842, 0.919343 -0.792022, 0.982823 -0.960203, 1.01436 -1.13663, 1.01436 -1.3215, 1.01436 -1.47732, 0.993952 -1.62303, 0.953144 -1.75824, 0.912335 -1.89344, 0.853596 -2.01216, 0.776513 -2.11438, 0.699636 -2.21661, 0.603386 -2.29905, 0.487968 -2.36171, 0.37255 -2.42436, 0.238789 -2.45569, 0.0870967 -2.4559, -0.139205 -2.45569, -0.339125 -2.38809, -0.512458 -2.25288, -0.685585 -2.11768, -0.800591 -1.96867, -0.85727 -1.80626, -0.868399 -1.80172, -0.850262 -1.79946, -0.802858 -1.79966 L -0.745149 -1.79966 C -0.677135 -1.784, -0.618396 -1.7603, -0.568519 -1.72856, -0.518642 -1.69661, -0.476803 -1.65271, -0.442796 -1.59665, -0.408788 -1.54059, -0.391888 -1.47299, -0.391888 -1.39405, -0.391888 -1.26194, -0.434757 -1.16074, -0.520909 -1.09046, -0.60706 -1.01997, -0.70331 -0.984935, -0.80966 -0.985141, -0.911475 -0.984935, -1.00669 -1.01997, -1.09491 -1.09046, -1.18312 -1.16074, -1.22743 -1.26194, -1.22743 -1.39405, -1.22743 -1.57851, -1.19116 -1.75329, -1.11861 -1.91817, -1.04606 -2.08305, -0.947749 -2.22588, -0.823263 -2.34687, -0.698776 -2.46764, -0.551618 -2.56328, -0.381789 -2.63376, -0.211959 -2.70404, -0.0318251 -2.73929, 0.158409 -2.73949, 0.393985 -2.73929, 0.609775 -2.70466, 0.805574 -2.63541, 1.00137 -2.56616, 1.16832 -2.46661, 1.3064 -2.33697, 1.44449 -2.20713, 1.5527 -2.05709, 1.63081 -1.88684, 1.70893 -1.7164, 1.74788 -1.52802, 1.74788 -1.3215, 1.74788 -1.09273, 1.69594 -0.882089, 1.59165 -0.689795, 1.48757 -0.497294, 1.35855 -0.32087, 1.20459 -0.160521, 1.05063 3.3617e-005, 0.886984 0.151108, 0.713651 0.292907, 0.540524 0.434706, 0.38368 0.572589, 0.243323 0.706557 L -0.538015 1.44193, 0.484464 1.44193 C 0.627088 1.44214, 0.760231 1.44111, 0.883481 1.43884, 1.00694 1.43678, 1.11164 1.43225, 1.19779 1.42565, 1.28394 1.41906, 1.32805 1.41473, 1.33011 1.41225, 1.34824 1.397, 1.36535 1.36629, 1.38122 1.32013, 1.39709 1.27396, 1.41172 1.21955, 1.42533 1.15689, 1.43893 1.09424, 1.45253 1.03055, 1.46614 0.965629, 1.47974 0.900912, 1.4921 0.829806, 1.50344 0.752724 L 1.75468 0.752724 Z" stroke="none" fill="#000000" transform="matrix(1.12 0 0 1 8.87535 10.4826)" />
			<rect />
		</svg>
	</g>
	<g transform="matrix(1 0 -0 1 269.089 93.0301)">
		<svg width="36.0418549" height="36.0418549">
			<defs />
			<path d="M 8.42871 2.77168 C 8.41657 2.82689, 8.38713 2.87142, 8.34075 2.90454, 8.29438 2.93803, 8.24469 2.9546, 8.19206 2.95423, 7.92523 2.9546, 7.6665 3.01937, 7.4155 3.14855, 7.14903 3.29798, 6.90244 3.50629, 6.67573 3.77275 L 3.54001 7.50617, 2.89704 9.97941 C 2.87275 10.0504, 2.86061 10.1134, 2.86061 10.1679, 2.86061 10.2231, 2.87091 10.2565, 2.89079 10.268, 2.94747 10.3037, 3.06082 10.3243, 3.23049 10.3302, 3.40053 10.336, 3.5805 10.339, 3.77041 10.3386, 3.87567 10.339, 3.92793 10.3901, 3.92793 10.4917 L 3.92793 10.5447, 3.90401 10.6507 C 3.85947 10.7685, 3.78255 10.8274, 3.67324 10.8274, 3.17602 10.8038, 2.6707 10.7921, 2.15691 10.7921, 1.65159 10.7921, 1.14222 10.8038, 0.628433 10.8274, 0.52759 10.8274, 0.472752 10.7766, 0.464655 10.6743 L 0.464655 10.6213, 0.495202 10.5212 C 0.52759 10.396, 0.604511 10.3349, 0.725597 10.3386, 0.915874 10.339, 1.09401 10.336, 1.25963 10.3302, 1.42524 10.3243, 1.55075 10.3037, 1.6354 10.268, 1.70827 10.2289, 1.76716 10.123, 1.81132 9.94997 L 2.45429 7.47673, 1.12603 3.41943 C 1.09769 3.31785, 1.0664 3.23541, 1.03181 3.17248, 0.99758 3.10991, 0.947158 3.0617, 0.880174 3.0282, 0.813559 2.99508, 0.715659 2.97447, 0.586109 2.96637, 0.456926 2.95864, 0.313389 2.9546, 0.155499 2.95423, 0.0502395 2.9546, -0.00239053 2.9016, -0.00239053 2.79523 L -0.00239053 2.75401, 0.0219002 2.64802 C 0.0668014 2.53061, 0.143722 2.47173, 0.252663 2.47136, 0.657141 2.49528, 1.06346 2.50706, 1.47162 2.50669, 1.53234 2.50706, 1.59712 2.50301, 1.66558 2.49491, 2.14293 2.49528, 2.62028 2.48755, 3.09726 2.47136, 3.20657 2.47173, 3.26509 2.52472, 3.27318 2.63035 L 3.27318 2.67746, 3.23675 2.77757 C 3.21246 2.89571, 3.13774 2.9546, 3.01224 2.95423, 2.86686 2.9546, 2.73842 2.96048, 2.62727 2.97226, 2.51612 2.98404, 2.42006 3.01348, 2.33909 3.06022, 2.3148 3.0801, 2.30266 3.11359, 2.30266 3.16033, 2.30266 3.1883, 2.3067 3.21959, 2.3148 3.25455 L 3.48518 6.84664, 6.25727 3.56665 C 6.32609 3.48053, 6.37651 3.39809, 6.4089 3.31933, 6.42105 3.27663, 6.42693 3.23541, 6.42693 3.19566, 6.42693 3.17248, 6.42509 3.15297, 6.42105 3.13678, 6.36437 3.01532, 6.23114 2.9546, 6.02062 2.95423, 5.91977 2.9546, 5.86493 2.9016, 5.85684 2.79523 L 5.85684 2.75401, 5.88113 2.64802 C 5.92566 2.53061, 6.00442 2.47173, 6.11778 2.47136, 6.47368 2.48755, 6.83546 2.49528, 7.2035 2.49491, 7.25208 2.50301, 7.3003 2.50706, 7.34888 2.50669, 7.65656 2.50706, 7.96977 2.49528, 8.28923 2.47136, 8.34591 2.47173, 8.39633 2.49123, 8.44086 2.53024, 8.45705 2.5619, 8.46515 2.59134, 8.46515 2.61857, 8.46515 2.6425, 8.45926 2.66421, 8.44675 2.68335 Z" stroke="none" fill="#000000" />
			<path d="M 1.81199 0.812082 C 1.81199 1.00128, 1.77015 1.18286, 1.68648 1.3564, 1.6028 1.53015, 1.49068 1.67854, 1.35012 1.80138, 1.19162 1.94009, 1.01664 2.04273, 0.825376 2.10971, 0.634111 2.1769, 0.434191 2.21029, 0.22582 2.21029, 0.037854 2.21029, -0.145372 2.18391, -0.32427 2.13114, -0.503168 2.07838, -0.664341 2.00274, -0.808201 1.90381, -0.952061 1.80488, -1.06686 1.68349, -1.15301 1.53942, -1.23916 1.39556, -1.28224 1.23006, -1.28224 1.04292, -1.28224 0.902355, -1.23525 0.797448, -1.14126 0.728197, -1.04728 0.658947, -0.948145 0.624321, -0.844063 0.624115, -0.73524 0.624321, -0.634043 0.658947, -0.54006 0.728197, -0.446077 0.797448, -0.399085 0.902355, -0.399085 1.04292, -0.399085 1.1266, -0.415368 1.19646, -0.448344 1.25252, -0.481115 1.30858, -0.522954 1.35537, -0.574067 1.39268, -0.624975 1.43019, -0.683302 1.45306, -0.749049 1.46172, -0.78285 1.47079, -0.81459 1.47512, -0.844063 1.47491, -0.87333 1.47512, -0.877864 1.47738, -0.857666 1.48151, -0.787384 1.60476, -0.649295 1.71378, -0.443192 1.80818, -0.237088 1.90278, -0.0140841 1.94998, 0.22582 1.94977, 0.339177 1.94998, 0.444908 1.92195, 0.543426 1.86589, 0.641943 1.80983, 0.724179 1.7346, 0.78972 1.63979, 0.871337 1.51696, 0.926778 1.38505, 0.956251 1.24428, 0.985724 1.10372, 1.00036 0.959652, 1.00036 0.812082, 1.00036 0.660595, 0.985724 0.515086, 0.956251 0.375348, 0.926778 0.235816, 0.871337 0.106589, 0.78972 -0.0123327, 0.721705 -0.108789, 0.639058 -0.186902, 0.541777 -0.24626, 0.444496 -0.305618, 0.339177 -0.335297, 0.22582 -0.335503 L -0.266561 -0.335503 C -0.332102 -0.335297, -0.367345 -0.366006, -0.37188 -0.427837 L -0.37188 -0.464112 C -0.37188 -0.490287, -0.363842 -0.511103, -0.348178 -0.526767, -0.327774 -0.546347, -0.301805 -0.55624, -0.270065 -0.556446, -0.204318 -0.565102, -0.136303 -0.56943, -0.0662283 -0.569637, 0.00178587 -0.56943, 0.0685635 -0.573759, 0.134104 -0.582827, 0.25653 -0.591484, 0.362879 -0.6292, 0.453565 -0.69639, 0.54425 -0.763374, 0.620096 -0.849113, 0.681103 -0.953607, 0.74211 -1.0579, 0.788483 -1.17826, 0.820223 -1.3147, 0.851963 -1.45094, 0.867833 -1.59067, 0.867833 -1.73371, 0.867833 -1.83903, 0.856497 -1.93899, 0.833826 -2.03359, 0.811154 -2.12799, 0.769315 -2.21063, 0.708103 -2.28112, 0.581349 -2.42601, 0.420588 -2.49753, 0.22582 -2.49547, 0.0176558 -2.49526, -0.173196 -2.4561, -0.346323 -2.3782, -0.51945 -2.30008, -0.635692 -2.21599, -0.694638 -2.12613, -0.710302 -2.12366, -0.70247 -2.12263, -0.67073 -2.12283, -0.589113 -2.12263, -0.512236 -2.09851, -0.439894 -2.05028, -0.331071 -1.98639, -0.276866 -1.8786, -0.276866 -1.72711, -0.276866 -1.59933, -0.318087 -1.50308, -0.400734 -1.43836, -0.483382 -1.37344, -0.575716 -1.34108, -0.677531 -1.34129, -0.777285 -1.34108, -0.87065 -1.37282, -0.957832 -1.43671, -1.04501 -1.5004, -1.08871 -1.59727, -1.08871 -1.72711, -1.08871 -1.88746, -1.05017 -2.02906, -0.973084 -2.15231, -0.896001 -2.27535, -0.797071 -2.38087, -0.675882 -2.46888, -0.554694 -2.55668, -0.414955 -2.62387, -0.256462 -2.67004, -0.0977621 -2.7162, 0.0629987 -2.73929, 0.22582 -2.73949, 0.400184 -2.73929, 0.568983 -2.7162, 0.732011 -2.67004, 0.895038 -2.62387, 1.049 -2.55235, 1.19389 -2.4559, 1.31178 -2.37222, 1.41071 -2.26937, 1.49109 -2.14736, 1.57147 -2.02535, 1.61166 -1.88746, 1.61166 -1.73371, 1.61166 -1.57954, 1.58404 -1.43445, 1.5286 -1.29821, 1.47316 -1.16177, 1.39958 -1.03873, 1.30786 -0.928875, 1.21615 -0.818816, 1.10691 -0.722153, 0.979953 -0.638681, 0.853199 -0.555003, 0.75798 -0.502447, 0.6945 -0.4806, 0.748911 -0.473798, 0.841864 -0.441234, 0.973152 -0.383113, 1.10465 -0.324785, 1.23016 -0.247291, 1.35012 -0.150834, 1.49068 -0.0296452, 1.6028 0.114833, 1.68648 0.283014, 1.77015 0.451194, 1.81199 0.627619, 1.81199 0.812082 Z" stroke="none" fill="#000000" transform="matrix(1.12 0 0 1 8.92976 10.4826)" />
			<rect />
		</svg>
	</g>
</svg>
