<?xml version="1.0"?>
<svg xmlns="http://www.w3.org/2000/svg" xmlns:xlink="http://www.w3.org/1999/xlink" width="239.770126" height="154.979645">
	<defs />
	<path d="M -56.9416 148.817 C -130.074 127.569, -194.14 97.9775, -219.272 55.6847, -244.404 13.3917, -245.047 -51.1588, -222.149 -79.4556, -199.251 -107.752, -148.249 -118.522, -114.031 -118.83, -79.8131 -119.137, -48.0072 -113.808, -6.61707 -108.774, 34.7731 -103.741, 67.3702 -115.648, 91.9929 -129.343, 116.616 -143.038, 145.121 -151.778, 175.933 -149.444, 206.746 -147.11, 222.82 -134.065, 233.933 -108.052, 245.047 -82.0396, 245.047 -60.0449, 231.884 -32.3415, 218.721 -4.63826, 196.356 12.7724, 171.758 19.1802, 147.16 25.5879, 121.821 31.1241, 99.9032 37.5938, 77.9857 44.0637, 61.8873 51.862, 47.3246 61.2063, 32.7616 70.5507, 22.184 86.1469, 16.1524 101.074, 10.1206 116.001, 3.3443 130.928, -12.4428 140.151, -28.2302 149.375, -42.4595 151.778, -56.9416 148.597" fill="none" stroke="#000000" stroke-width="2.20000005" stroke-linecap="round" stroke-linejoin="round" transform="matrix(0.454545 0 -0 0.454545 119.885 77.4898)" />
	<g transform="matrix(1 0 -0 1 173.82 38.3406)">
		<svg width="36.0418549" height="39.1674385">
			<defs />
			<path d="M 10.894 3.69557 C 10.8779 3.76918, 10.8386 3.82856, 10.7768 3.87272, 10.7149 3.91738, 10.6487 3.93946, 10.5785 3.93897, 10.3847 3.93946, 10.1962 3.95418, 10.0127 3.98264, 9.82918 4.0116, 9.65939 4.08079, 9.50284 4.19022, 9.37379 4.26923, 9.27122 4.37277, 9.19565 4.50085, 9.12008 4.62942, 9.06365 4.76633, 9.02586 4.91256 L 7.52965 10.707 C 7.38979 11.2311, 7.17535 11.7375, 6.8868 12.2268, 6.59826 12.7165, 6.23022 13.1675, 5.78268 13.5807, 5.38912 13.9424, 4.95287 14.2343, 4.47294 14.4561, 3.99301 14.6789, 3.50523 14.7898, 3.00911 14.7898, 2.4703 14.7898, 1.9889 14.6829, 1.56541 14.4679, 1.1424 14.254, 0.801352 13.9605, 0.542251 13.5885, 0.25665 13.1911, 0.0868602 12.7386, 0.0328807 12.2302, 0.0112889 12.0791, 0.00049305 11.9191, 0.00049305 11.7513, 0.00049305 11.4009, 0.0436766 11.0427, 0.130044 10.6756 L 1.75532 4.41791 C 1.77691 4.31879, 1.7877 4.24027, 1.7877 4.18237, 1.7877 4.10434, 1.77151 4.05478, 1.73912 4.03319, 1.66944 3.99197, 1.5237 3.96596, 1.30287 3.95516, 1.08205 3.94486, 0.844536 3.93946, 0.590832 3.93897, 0.510354 3.93946, 0.450976 3.91345, 0.413191 3.86045, 0.380803 3.82954, 0.364609 3.79028, 0.364609 3.74268, 0.364609 3.71176, 0.372952 3.68281, 0.388655 3.65631 L 0.413191 3.53069 C 0.472568 3.37415, 0.577583 3.29563, 0.728235 3.29514, 1.40249 3.31673, 2.08165 3.32704, 2.76621 3.32655, 3.45125 3.32704, 4.13581 3.31673, 4.82037 3.29514, 4.97151 3.29563, 5.04708 3.3663, 5.04708 3.50713 L 5.04708 3.56995, 4.9985 3.70342 C 4.96611 3.86094, 4.8665 3.93946, 4.69916 3.93897, 4.44595 3.93946, 4.20648 3.94486, 3.97976 3.95516, 3.75305 3.96596, 3.58866 3.99344, 3.4861 4.0376, 3.38403 4.08226, 3.30306 4.21966, 3.24368 4.44932 L 1.63411 10.707 C 1.51045 11.1683, 1.43733 11.6104, 1.41574 12.0339, 1.40494 12.0972, 1.39954 12.16, 1.39954 12.2224, 1.39954 12.5786, 1.46972 12.9059, 1.61006 13.2038, 1.75041 13.487, 1.95112 13.7161, 2.21267 13.8913, 2.47423 14.067, 2.77995 14.1543, 3.13032 14.1539, 3.51897 14.1543, 3.90861 14.0655, 4.29922 13.8874, 4.68984 13.7097, 5.05248 13.4688, 5.38666 13.1646, 5.76943 12.825, 6.08104 12.4378, 6.321 12.003, 6.56096 11.5687, 6.74008 11.1261, 6.85834 10.6756 L 8.3467 4.86545 C 8.37909 4.77173, 8.39479 4.67211, 8.39479 4.56709 L 8.39479 4.45717 C 8.37909 4.34774, 8.33296 4.25598, 8.25739 4.18237, 8.14452 4.07294, 8.01105 4.00522, 7.85745 3.97872, 7.70386 3.95271, 7.52474 3.93946, 7.31962 3.93897, 7.23865 3.93946, 7.17927 3.9159, 7.14149 3.86831, 7.10419 3.83199, 7.08506 3.79028, 7.08506 3.74268, 7.08506 3.71176, 7.0934 3.68036, 7.1091 3.64846 L 7.14149 3.53854 C 7.15817 3.47082, 7.19449 3.41341, 7.25092 3.3663, 7.30784 3.31919, 7.3736 3.29563, 7.44868 3.29514, 7.98799 3.31673, 8.52974 3.32704, 9.07444 3.32655, 9.61375 3.32704, 10.1609 3.31673, 10.7159 3.29514, 10.7915 3.29563, 10.8563 3.32164, 10.9102 3.37366, 10.9318 3.41586, 10.9426 3.45512, 10.9426 3.49143, 10.9426 3.52333, 10.9348 3.55228, 10.9181 3.5778 Z" stroke="none" fill="#000000" />
			<rect />
		</svg>
	</g>
	<g transform="matrix(1 0 -0 1 73.3982 77.795)">
		<svg width="21.0837193" height="20.8604622">
			<defs />
			<path d="M 5.21508 5.65668 C 5.17582 5.81404, 5.09567 5.93182, 4.97528 6.01033, 4.85488 6.08885, 4.73384 6.12811, 4.61149 6.12778, 4.48586 6.12811, 4.3815 6.08787, 4.29873 6.00739, 4.23788 5.9485, 4.20549 5.87162, 4.20157 5.77708, 4.20157 5.73913, 4.20877 5.69005, 4.22316 5.63051, 4.26275 5.49834, 4.32392 5.39791, 4.40636 5.32986, 4.48913 5.26182, 4.54671 5.22256, 4.5791 5.21176, 4.51105 5.15975, 4.3707 5.13357, 4.15839 5.13325, 3.97158 5.13357, 3.80441 5.23041, 3.65719 5.42408, 3.50998 5.61775, 3.40006 5.85068, 3.32808 6.12254 L 2.83213 8.03833 C 2.78174 8.23069, 2.74412 8.41389, 2.71893 8.58793, 2.70454 8.64748, 2.69734 8.69982, 2.69734 8.74497, 2.69734 8.85358, 2.71533 8.9563, 2.75132 9.05379, 2.78731 9.15881, 2.84129 9.24256, 2.91326 9.30537, 2.98523 9.36818, 3.07683 9.39959, 3.18806 9.39926, 3.33201 9.39959, 3.47039 9.3623, 3.60321 9.28705, 3.73636 9.21213, 3.85872 9.11104, 3.96995 8.98346, 4.08118 8.8562, 4.17998 8.708, 4.26634 8.53854, 4.35271 8.3694, 4.42076 8.19568, 4.47114 8.01739, 4.49273 7.92709, 4.55391 7.88162, 4.65434 7.88129 L 4.77833 7.88129 C 4.8719 7.88162, 4.91868 7.91663, 4.91868 7.98598, 4.91868 8.00725, 4.91344 8.02655, 4.90265 8.04356, 4.85227 8.25326, 4.77048 8.46002, 4.65729 8.66416, 4.54409 8.8683, 4.41225 9.04889, 4.26111 9.20592, 4.10997 9.36295, 3.93854 9.49217, 3.74618 9.59293, 3.55382 9.69435, 3.34804 9.74473, 3.12885 9.74473, 2.90606 9.74473, 2.7137 9.69697, 2.55209 9.60079, 2.39048 9.50526, 2.25896 9.38029, 2.1582 9.22653, 2.12614 9.18858, 2.10095 9.14932, 2.08296 9.10908, 2.06496 9.06917, 2.0594 9.06295, 2.0666 9.09044, 1.98056 9.23373, 1.84414 9.37865, 1.65701 9.52522, 1.47021 9.67178, 1.25462 9.74473, 1.00991 9.74473, 0.873488 9.74473, 0.738703 9.72739, 0.605554 9.69239, 0.472731 9.65771, 0.356594 9.60373, 0.257795 9.53045, 0.158996 9.45717, 0.0844062 9.36818, 0.0340253 9.26317, 0.00916206 9.20068, -0.00326958 9.13264, -0.00359673 9.05903, -0.00326958 9.00701, 0.00392769 8.94584, 0.0179951 8.87582, 0.05758 8.71912, 0.138386 8.60135, 0.260739 8.52283, 0.383093 8.44432, 0.505119 8.40506, 0.627145 8.40473, 0.753098 8.40506, 0.861057 8.4453, 0.950695 8.52512, 1.01187 8.58466, 1.0423 8.66154, 1.0423 8.75543, 1.0423 8.80451, 1.0351 8.85358, 1.0207 8.902, 0.988644 9.02435, 0.930085 9.12315, 0.845681 9.19807, 0.761276 9.27331, 0.700754 9.3142, 0.664768 9.32075, 0.733142 9.37702, 0.871525 9.40319, 1.07992 9.39926, 1.26705 9.39959, 1.43586 9.3021, 1.58667 9.10647, 1.73781 8.91116, 1.84741 8.67725, 1.91578 8.40473 L 2.41697 6.47848 C 2.46736 6.29724, 2.50694 6.11927, 2.53573 5.94458, 2.54293 5.88896, 2.54653 5.83662, 2.54653 5.78754, 2.54653 5.67958, 2.53049 5.5785, 2.49778 5.48395, 2.46212 5.37959, 2.40651 5.29519, 2.33093 5.23041, 2.25536 5.16596, 2.1618 5.13357, 2.05057 5.13325, 1.90662 5.13357, 1.76726 5.1712, 1.63247 5.24611, 1.49769 5.32136, 1.37468 5.42146, 1.26345 5.54709, 1.15222 5.67272, 1.05342 5.81862, 0.967053 5.98416, 0.880685 6.15002, 0.817873 6.32538, 0.777961 6.50989, 0.738703 6.60443, 0.672292 6.65318, 0.578727 6.65645 L 0.459973 6.65645 C 0.373933 6.65678, 0.330749 6.61327, 0.330749 6.52559 L 0.330749 6.48895 C 0.384728 6.27303, 0.467497 6.06268, 0.578727 5.85854, 0.689958 5.65439, 0.823107 5.47381, 0.977521 5.31678, 1.13226 5.15975, 1.305 5.0315, 1.4954 4.93205, 1.6858 4.8326, 1.89256 4.78287, 2.11502 4.78254, 2.33093 4.78287, 2.52133 4.82998, 2.68654 4.9242, 2.85208 5.01842, 2.98687 5.14404, 3.0909 5.30075, 3.11249 5.33935, 3.13245 5.38057, 3.15044 5.42408, 3.16843 5.46792, 3.17367 5.47904, 3.16647 5.45778, 3.25644 5.30467, 3.39482 5.15386, 3.58162 5.00533, 3.76875 4.85713, 3.98238 4.78287, 4.22316 4.78254, 4.35991 4.78287, 4.49535 4.79956, 4.63013 4.8326, 4.76492 4.86597, 4.88204 4.91896, 4.98084 4.99225, 5.07964 5.06553, 5.15259 5.15615, 5.19904 5.26411, 5.22424 5.32725, 5.23667 5.39889, 5.23667 5.47872, 5.23667 5.53139, 5.22947 5.5906, 5.21508 5.65668 Z" stroke="none" fill="#000000" />
			<rect />
		</svg>
	</g>
	<g transform="matrix(1 0 -0 1 62.9633 46.3505)">
		<svg width="17.9581375" height="20.8604622">
			<defs />
			<path d="M 4.44807 5.12278 C 4.51285 5.17185, 4.54524 5.23303, 4.54524 5.30598 L 4.54524 5.32692 C 4.53804 5.411, 4.50598 5.48264, 4.4484 5.54186, 4.39082 5.6014, 4.32605 5.63967, 4.25408 5.65668, 4.22921 5.66388, 4.20042 5.66748, 4.16771 5.66715, 4.11406 5.66748, 4.06008 5.65014, 4.0061 5.61481, 3.86248 5.51045, 3.70708 5.42506, 3.53991 5.35865, 3.37274 5.29257, 3.19215 5.2592, 2.99783 5.25887, 2.76424 5.2592, 2.53066 5.27752, 2.29707 5.31416, 2.06349 5.3508, 1.8335 5.41787, 1.60679 5.51536, 1.44158 5.58537, 1.30222 5.66748, 1.18902 5.7617, 1.07583 5.85592, 1.00124 5.96224, 0.965253 6.08067, 0.950858 6.12974, 0.943661 6.17881, 0.943661 6.22723, 0.943661 6.30084, 0.960018 6.36889, 0.992406 6.43137, 1.03919 6.53999, 1.11116 6.63224, 1.208 6.70879, 1.25838 6.751, 1.30876 6.786, 1.35881 6.81348, 1.65717 6.68131, 1.97549 6.6149, 2.3131 6.61458 L 2.53426 6.61458 C 2.64222 6.6149, 2.74625 6.62472, 2.84701 6.64369, 2.94777 6.66299, 3.03381 6.69702, 3.10579 6.74543, 3.17416 6.78077, 3.20818 6.83638, 3.20818 6.91293, 3.20818 6.94107, 3.20458 6.96724, 3.19739 6.99145, 3.17252 7.09287, 3.11037 7.16975, 3.01157 7.22209, 2.91277 7.27443, 2.80743 7.3078, 2.6962 7.32154, 2.58496 7.33561, 2.47701 7.34248, 2.37265 7.34215 L 2.15149 7.34215 C 2.00068 7.34248, 1.84986 7.33136, 1.69872 7.30846, 1.54758 7.28588, 1.41475 7.24826, 1.2996 7.19559, 1.27474 7.20999, 1.24235 7.22929, 1.20276 7.2535, 1.16318 7.27803, 1.12163 7.3042, 1.07845 7.33169, 0.913236 7.44357, 0.773217 7.57377, 0.65806 7.72197, 0.543231 7.8705, 0.466024 8.02655, 0.426112 8.19012, 0.411718 8.25686, 0.40452 8.32131, 0.40452 8.38379, 0.40452 8.46427, 0.420878 8.54279, 0.453266 8.61934, 0.507245 8.75576, 0.593612 8.86928, 0.71204 8.95958, 0.866454 9.07866, 1.04998 9.15881, 1.26198 9.20068, 1.47397 9.24256, 1.70036 9.2635, 1.94114 9.26317, 2.12467 9.2635, 2.30623 9.25663, 2.48584 9.24256, 2.66577 9.22882, 2.83 9.19905, 2.97918 9.15357, 3.12836 9.10843, 3.26151 9.04463, 3.3783 8.96252, 3.49509 8.88073, 3.58408 8.77506, 3.64493 8.64551, 3.68091 8.58663, 3.7241 8.54639, 3.77415 8.52512 L 3.81733 8.52512 C 3.83892 8.52545, 3.86248 8.53068, 3.88767 8.54082, 3.92006 8.56209, 3.94688 8.59513, 3.96848 8.64028 L 3.96848 8.69262 C 3.96848 8.71389, 3.96324 8.73482, 3.95212 8.75543, 3.85168 8.95467, 3.72311 9.12413, 3.56674 9.2635, 3.41036 9.40319, 3.23534 9.51834, 3.04101 9.60864, 2.84701 9.69958, 2.64385 9.76403, 2.43186 9.80231, 2.21987 9.84091, 2.01147 9.85989, 1.80635 9.85989, 1.53351 9.85989, 1.27637 9.82161, 1.03559 9.74473, 0.794809 9.66818, 0.582489 9.54452, 0.399286 9.37309, 0.244872 9.22326, 0.135277 9.04529, 0.0705019 8.83918, 0.0237197 8.73482, 0.000164986 8.61803, 0.000164986 8.48848, 0.000164986 8.38412, 0.0145595 8.2778, 0.0433486 8.16918, 0.104525 7.92186, 0.224916 7.69318, 0.40452 7.48381, 0.584452 7.27443, 0.771254 7.11577, 0.965253 7.00715, 0.854022 6.9342, 0.746391 6.81544, 0.64203 6.65122, 0.580853 6.54326, 0.550102 6.42647, 0.550102 6.30051, 0.550102 6.21709, 0.560897 6.13334, 0.582489 6.04926, 0.643666 5.83662, 0.762421 5.64393, 0.938427 5.47119, 1.11443 5.29846, 1.3032 5.15975, 1.50439 5.05473, 1.76677 4.9121, 2.03634 4.81101, 2.3131 4.75146, 2.58987 4.69225, 2.85944 4.66248, 3.12182 4.66215, 3.38811 4.66248, 3.62988 4.70632, 3.8471 4.79334, 4.06466 4.88069, 4.26487 4.99061, 4.44807 5.12278 Z M 2.81462 6.96528 C 2.81822 6.95514, 2.78322 6.95874, 2.70961 6.97607, 2.636 6.99374, 2.47144 7.00225, 2.21627 7.00192, 2.02947 6.99865, 1.92151 6.99341, 1.89272 6.98622, 1.9359 6.97248, 2.05466 6.96561, 2.24866 6.96528, 2.50023 6.96561, 2.66544 6.97248, 2.74461 6.98622, 2.7914 6.99341, 2.81462 6.98654, 2.81462 6.96528 Z" stroke="none" fill="#000000" />
			<rect />
		</svg>
	</g>
	<g transform="matrix(1 0 -0 1 101.454 67.6824)">
		<svg width="92.9720764" height="75.1116104">
			<defs />
			<polyline points="0.1608 9.80738 6.10303 9.80738" fill="none" stroke="#000000" stroke-width="0.32159999" stroke-linecap="round" stroke-linejoin="round" />
			<path d="M 4.57802 7.18583 C 4.09206 7.17044, 3.61909 7.16274, 3.15934 7.16274, 2.69983 7.16274, 2.22686 7.17044, 1.74066 7.18583 L 1.74066 6.85496, 2.0143 6.85496 C 2.10134 6.8552, 2.18334 6.854, 2.2598 6.85136, 2.33651 6.84895, 2.40912 6.84246, 2.47789 6.83212, 2.54666 6.82202, 2.60606 6.81168, 2.65607 6.8011, 2.69839 6.79365, 2.7335 6.77008, 2.76115 6.73017, 2.78904 6.69049, 2.80275 6.64625, 2.80275 6.5972 L 2.80275 2.26133 C 2.67074 2.32577, 2.50819 2.37458, 2.31535 2.40776, 2.1225 2.44119, 1.91114 2.45778, 1.68127 2.45754 L 1.68127 2.13052 C 1.99843 2.13076, 2.29106 2.09301, 2.55917 2.01727, 2.82727 1.94176, 3.05907 1.7999, 3.25456 1.5919 L 3.37743 1.5919 C 3.46448 1.59214, 3.508 1.63446, 3.508 1.71886 L 3.508 6.5972 C 3.508 6.64865, 3.52122 6.69362, 3.54767 6.73209, 3.57412 6.77056, 3.6126 6.79365, 3.66261 6.8011, 3.70493 6.81168, 3.75927 6.82202, 3.82516 6.83212, 3.89128 6.84246, 3.96582 6.84895, 4.04902 6.85136, 4.13222 6.854, 4.21349 6.8552, 4.2926 6.85496 L 4.57802 6.85496, 4.57802 7.18583 Z" stroke="none" fill="#000000" />
			<path d="M 5.25748 16.0332 C 5.21994 16.1775, 5.17013 16.3247, 5.10806 16.4751, 5.04623 16.6257, 4.96795 16.7624, 4.87349 16.8853, 4.77927 17.0085, 4.67131 17.1111, 4.5501 17.1933, 4.4289 17.2757, 4.29002 17.3169, 4.13348 17.3169, 3.99878 17.3169, 3.88223 17.2882, 3.78384 17.2306, 3.68545 17.1731, 3.61209 17.0973, 3.56351 17.0031, 3.51493 16.9089, 3.48671 16.799, 3.47837 16.6731 L 3.47837 16.6417 C 3.47837 16.5293, 3.50266 16.4142, 3.55124 16.2962, 3.64031 16.0688, 3.72397 15.8411, 3.802 15.6134, 3.88002 15.3857, 3.9502 15.158, 4.01203 14.9301, 4.04981 14.776, 4.0768 14.6268, 4.093 14.4825, 4.09839 14.4408, 4.10109 14.3964, 4.10109 14.349, 4.10109 14.2602, 4.0903 14.1792, 4.06871 14.1056, 4.02037 13.941, 3.91805 13.8586, 3.76151 13.8583, 3.48671 13.8586, 3.25067 13.9523, 3.05389 14.1393, 2.85711 14.3265, 2.6834 14.577, 2.53225 14.8908 L 1.97823 17.0264 C 1.95418 17.1236, 1.90486 17.196, 1.83077 17.2443, 1.75667 17.2929, 1.68183 17.3169, 1.60626 17.3169, 1.52554 17.3169, 1.46346 17.2909, 1.42028 17.2384, 1.38543 17.2046, 1.36777 17.1574, 1.36777 17.0971, 1.36777 17.0738, 1.37047 17.0451, 1.37587 17.0107 L 1.99835 14.5807 C 2.04153 14.4109, 2.06312 14.2641, 2.06312 14.141 L 2.06312 14.0468 C 2.04987 13.9214, 1.98657 13.8586, 1.87321 13.8583, 1.75446 13.8586, 1.65533 13.9543, 1.57583 14.1451, 1.49634 14.3363, 1.41905 14.5848, 1.34348 14.8908, 1.31379 14.9617, 1.26398 14.9983, 1.19381 15.0007 L 1.10082 15.0007 C 1.03604 15.001, 1.00365 14.9683, 1.00365 14.9026 L 1.00365 14.8751 C 1.03604 14.7524, 1.0726 14.6182, 1.11308 14.4729, 1.15357 14.3277, 1.20755 14.1903, 1.27478 14.0607, 1.34225 13.9312, 1.42715 13.8213, 1.52946 13.731, 1.63202 13.6407, 1.75986 13.5955, 1.91345 13.5953, 2.13477 13.5955, 2.30873 13.661, 2.43534 13.7918, 2.56194 13.9228, 2.62794 14.0509, 2.63334 14.1763, 2.7467 14.0301, 2.90422 13.8966, 3.1064 13.7761, 3.30858 13.6559, 3.54314 13.5955, 3.80985 13.5953, 3.96909 13.5955, 4.11753 13.625, 4.25494 13.6839, 4.39234 13.7428, 4.49882 13.8377, 4.57415 13.9682, 4.65512 14.102, 4.6956 14.2524, 4.6956 14.4197 L 4.6956 14.4393 C 4.69021 14.6072, 4.66592 14.776, 4.62273 14.9458, 4.5609 15.1842, 4.4895 15.4186, 4.40853 15.6487, 4.32756 15.8791, 4.24267 16.112, 4.1536 16.3473, 4.07288 16.5595, 4.03239 16.7374, 4.03239 16.8812, 4.03239 16.9992, 4.08245 17.0581, 4.18206 17.0578, 4.27383 17.0581, 4.35725 17.0306, 4.43282 16.9756, 4.50839 16.9207, 4.57636 16.8468, 4.63696 16.7538, 4.69757 16.6611, 4.75204 16.5512, 4.80062 16.4241, 4.8492 16.2972, 4.88968 16.1618, 4.92183 16.0175, 4.95421 15.9522, 5.0001 15.9196, 5.05947 15.9194 L 5.16056 15.9194 C 5.22534 15.9196, 5.25748 15.9483, 5.25748 16.0057 L 5.25748 16.0332 Z" stroke="none" fill="#000000" />
			<rect />
		</svg>
	</g>
	<path d="M 108.273 -0 C 108.273 59.7978, 59.7978 108.273, -0 108.273, -59.7978 108.273, -108.273 59.7978, -108.273 -0, -108.273 -59.7978, -59.7978 -108.273, -0 -108.273, 59.7978 -108.273, 108.273 -59.7978, 108.273 -0 Z" fill="none" stroke="#000000" stroke-width="2.20000005" stroke-linecap="round" stroke-linejoin="round" transform="matrix(0.454545 0 0 0.454545 80.8286 79.7087)" />
	<ellipse cx="376.07573246955872" cy="582.88157963752747" rx="2.2000000476837158" ry="2.2000000476837158" stroke="none" fill="#000000" transform="matrix(0.454545 0 0 0.454545 -90.1149 -185.237)" />
	<path d="M 59.5891 -0 C 59.5891 32.9101, 32.9101 59.5891, -0 59.5891, -32.9101 59.5891, -59.5891 32.9101, -59.5891 -0, -59.5891 -32.9101, -32.9101 -59.5891, -0 -59.5891, 32.9101 -59.5891, 59.5891 -32.9101, 59.5891 -0 Z" fill="none" stroke="#000000" stroke-width="2.20000005" stroke-linecap="round" stroke-linejoin="round" transform="matrix(0.454545 0 0 0.454545 91.3225 86.0735)" />
	<ellipse cx="399.16234135627747" cy="596.88408207893372" rx="2.2000000476837158" ry="2.2000000476837158" stroke="none" fill="#000000" transform="matrix(0.454545 0 0 0.454545 -90.1149 -185.237)" />
	<path d="M 19.485 50.5091 L -19.4849 -50.5095" fill="none" stroke="#000000" stroke-width="1.10000002" stroke-linecap="round" stroke-linejoin="round" stroke-dasharray="3.8555, 2.7445" transform="matrix(0.454545 0 0 0.454545 71.9718 56.7504)" />
	<path d="M -29.1792 -6.02448 L 29.1789 6.02423" fill="none" stroke="#000000" stroke-width="1.10000002" stroke-linecap="round" stroke-linejoin="round" stroke-dasharray="3.8555, 2.7445" transform="matrix(0.454545 0 0 0.454545 104.586 88.8116)" />
	<g transform="matrix(1 0 -0 1 88.0778 85.1456)">
		<svg width="17.9581375" height="20.8604622">
			<defs />
			<path d="M 4.83427 8.03309 C 4.79142 8.20452, 4.743 8.38772, 4.68902 8.58303, 4.63504 8.77866, 4.56307 8.9599, 4.4731 9.1274, 4.38346 9.2949, 4.27027 9.43983, 4.13352 9.56186, 3.9971 9.68388, 3.82633 9.74473, 3.62121 9.74473, 3.34836 9.74473, 3.12983 9.66916, 2.96626 9.51736, 2.80268 9.36557, 2.70846 9.21115, 2.68327 9.05379, 2.56092 9.19381, 2.3787 9.34398, 2.13595 9.50428, 1.89354 9.66458, 1.63738 9.74473, 1.36781 9.74473, 1.08384 9.74473, 0.845679 9.67341, 0.653316 9.53045, 0.460953 9.38749, 0.311119 9.20755, 0.20316 8.99098, 0.073936 8.73319, 0.00556201 8.45577, -0.00163525 8.15872 L -0.00163525 8.0802 C -0.00163525 7.80474, 0.036314 7.52928, 0.111558 7.25317, 0.197925 6.9499, 0.318316 6.64991, 0.47273 6.35318, 0.627471 6.05679, 0.832266 5.781, 1.08744 5.52583, 1.29616 5.31678, 1.53433 5.14077, 1.80193 4.99748, 2.06954 4.85452, 2.34173 4.78287, 2.6185 4.78254, 2.85928 4.78287, 3.05524 4.84667, 3.20606 4.97393, 3.3572 5.10151, 3.4524 5.20686, 3.49198 5.29028 L 3.47039 5.37926 C 3.49558 5.25037, 3.55578 5.15288, 3.65098 5.08646, 3.7465 5.02038, 3.84269 4.98701, 3.93952 4.98668, 4.05075 4.98701, 4.14432 5.02005, 4.21989 5.08614, 4.26667 5.13881, 4.29186 5.20849, 4.29513 5.29551, 4.29513 5.32725, 4.29153 5.36225, 4.28434 5.4002 L 3.50801 8.42567 C 3.47203 8.56896, 3.44684 8.70342, 3.43244 8.82872, 3.42557 8.89186, 3.42197 8.94943, 3.42197 9.00145, 3.42197 9.04725, 3.42557 9.096, 3.43244 9.14801, 3.44356 9.23209, 3.46876 9.2949, 3.50801 9.33678, 3.5476 9.37865, 3.60321 9.39959, 3.67519 9.39926, 3.75076 9.39959, 3.82175 9.36818, 3.88816 9.30537, 3.9549 9.24256, 4.01607 9.14932, 4.07169 9.02533, 4.1273 8.90167, 4.1803 8.75314, 4.23068 8.58041, 4.28106 8.40768, 4.33308 8.22022, 4.38673 8.01739, 4.40833 7.92709, 4.4695 7.88162, 4.57026 7.88129 L 4.69425 7.88129 C 4.78782 7.88162, 4.83427 7.9199, 4.83427 7.99645 L 4.83427 8.03309 Z M 3.29242 6.10684 C 3.27803 6.04436, 3.2656 5.97893, 3.2548 5.91088, 3.244 5.84283, 3.22765 5.77577, 3.20606 5.70903, 3.1488 5.54545, 3.06702 5.40838, 2.96102 5.29846, 2.85502 5.18854, 2.72089 5.13357, 2.55928 5.13325, 2.40847 5.13357, 2.25929 5.18788, 2.11174 5.29584, 1.96453 5.40413, 1.82974 5.54349, 1.70739 5.71426, 1.53498 5.95537, 1.40576 6.20597, 1.31939 6.46572, 1.23302 6.72581, 1.15385 6.99701, 1.08188 7.27934, 1.01023 7.55873, 0.951021 7.82928, 0.903912 8.09067, 0.87545 8.22349, 0.861055 8.34912, 0.861055 8.46754, 0.861055 8.5935, 0.87545 8.71552, 0.903912 8.83395, 0.936626 8.99818, 0.994859 9.13362, 1.07926 9.23994, 1.16367 9.34659, 1.28144 9.39959, 1.43226 9.39926, 1.59779 9.39959, 1.76398 9.34201, 1.93116 9.22686, 2.09833 9.1117, 2.25373 8.97037, 2.39734 8.80254, 2.45492 8.73319, 2.50988 8.66612, 2.5619 8.60135, 2.61424 8.5369, 2.66004 8.46787, 2.6993 8.39426 L 3.29242 6.10684 Z" stroke="none" fill="#000000" />
			<rect />
		</svg>
	</g>
</svg>
